<svg width="40" height="80" viewBox="0 0 40 80" fill="none" xmlns="http://www.w3.org/2000/svg">
<rect width="40" height="80" rx="4.57143" fill="#4D5461"/>
<rect width="13.3333" height="1.37143" rx="0.685714" transform="matrix(1 0 0 -1 13.3339 3.65723)" fill="#E5E6EB"/>
<rect width="5.77778" height="5.94286" rx="2.88889" transform="matrix(1 0 0 -1 16.8885 76.3428)" fill="#E5E6EB"/>
<rect x="2.2207" y="5.94336" width="35.5556" height="61.7143" fill="white"/>
<rect x="4.44238" y="17.8291" width="8.88889" height="6.85714" rx="1.37143" fill="#E5E6EB"/>
<rect x="14.2197" y="18.7432" width="21.3333" height="1.37143" rx="0.685714" fill="#E5E6EB"/>
<rect x="14.2197" y="22.4004" width="11.1111" height="1.37143" rx="0.685714" fill="#E5E6EB"/>
<rect x="4.44238" y="54.5801" width="13.1827" height="1.37143" rx="0.685714" fill="#E5E6EB"/>
<rect x="22.3716" y="54.5801" width="13.1827" height="1.37143" rx="0.685714" fill="#E5E6EB"/>
<path d="M12.4424 45.4369H12.2138V45.6655H12.4424V45.4369ZM15.645 43.2409L15.7743 43.4294L15.8464 43.3799L15.8671 43.2949L15.645 43.2409ZM16.4075 40.1036V39.875H16.2279L16.1854 40.0496L16.4075 40.1036ZM19.7626 40.1036V40.3322H19.8376L19.898 40.2878L19.7626 40.1036ZM21.8977 38.535V38.3064H21.8228L21.7624 38.3508L21.8977 38.535ZM24.4903 38.535V38.7636H24.5928L24.661 38.6871L24.4903 38.535ZM27.8454 34.7703L25.3395 35.5987L27.3099 37.3547L27.8454 34.7703ZM12.2138 33.8291V45.4369H12.671V33.8291H12.2138ZM12.4424 45.6655H27.9979V45.2084H12.4424V45.6655ZM12.5716 45.6255L15.7743 43.4294L15.5157 43.0524L12.3131 45.2484L12.5716 45.6255ZM15.8671 43.2949L16.6296 40.1576L16.1854 40.0496L15.4229 43.1869L15.8671 43.2949ZM16.4075 40.3322H19.7626V39.875H16.4075V40.3322ZM19.898 40.2878L22.0331 38.7192L21.7624 38.3508L19.6273 39.9194L19.898 40.2878ZM21.8977 38.7636H24.4903V38.3064H21.8977V38.7636ZM24.661 38.6871L26.6474 36.4581L26.3061 36.154L24.3197 38.3829L24.661 38.6871Z" fill="#6B4EFF"/>
</svg>
