<svg width="93" height="92" viewBox="0 0 93 92" fill="none" xmlns="http://www.w3.org/2000/svg">
<path d="M63.78 17.3034L47.7438 1.85029C47.0496 1.18141 45.9506 1.18141 45.2564 1.85029L29.2201 17.3034C28.0587 18.4225 28.8509 20.3863 30.4638 20.3863H39.6878V51.9269C39.6878 52.9168 40.4902 53.7192 41.4801 53.7192H51.5201C52.51 53.7192 53.3124 52.9168 53.3124 51.9269V20.3863H62.5364C64.1493 20.3863 64.9414 18.4225 63.78 17.3034Z" fill="#FFE177"/>
<path d="M46.1431 51.9274C46.1431 52.9172 45.3407 53.7197 44.3508 53.7197H51.52C52.5099 53.7197 53.3123 52.9172 53.3123 51.9274V20.3867H47.9354C46.9455 20.3867 46.1431 21.1891 46.1431 22.179V51.9274Z" fill="#FECE85"/>
<path d="M63.7801 17.3034L47.7438 1.85029C47.0496 1.18141 45.9506 1.18141 45.2564 1.85029L42.9155 4.10606L56.6109 17.3034C57.7723 18.4225 56.9801 20.3863 55.3673 20.3863H62.5364C64.1493 20.3863 64.9415 18.4225 63.7801 17.3034Z" fill="#FECE85"/>
<path d="M78.7625 52.4004H14.2375C12.4537 52.4004 11.5299 50.2711 12.7489 48.9685L24.4801 36.4309C24.8656 36.0189 25.4046 35.7852 25.9688 35.7852L46.4999 42.061L67.0311 35.7852C67.5953 35.7852 68.1343 36.019 68.5198 36.4309L80.251 48.9685C81.4701 50.2711 80.5466 52.4004 78.7625 52.4004Z" fill="#8AC9FE"/>
<path d="M80.2514 48.9685L68.5202 36.4309C68.1346 36.0189 67.5957 35.7852 67.0315 35.7852L62.1447 37.279L73.0824 48.9685C74.3014 50.2711 73.3776 52.4004 71.5938 52.4004H78.7629C80.5466 52.4004 81.4702 50.2711 80.2514 48.9685Z" fill="#60B7FF"/>
<path d="M12.679 51.6595L44.957 89.9369C45.764 90.894 47.2385 90.894 48.0456 89.9369L80.3236 51.6595C81.4312 50.3459 80.4975 48.3369 78.7792 48.3369H14.2234C12.5051 48.3369 11.5713 50.3459 12.679 51.6595Z" fill="#D1F2FE"/>
<path d="M78.7792 48.3369H71.6101C73.3284 48.3369 74.2621 50.3457 73.1545 51.6595L47.7659 89.9369C47.3954 90.3764 46.8841 90.6116 46.3615 90.6474C46.9773 90.6899 47.6091 90.4547 48.0457 89.9369L80.3237 51.6595C81.4313 50.3457 80.4975 48.3369 78.7792 48.3369Z" fill="#A7EBFD"/>
<path d="M30.335 48.3369L45.9427 90.268C46.1352 90.7854 46.867 90.7854 47.0597 90.268L62.6674 48.3369H30.335Z" fill="#8AC9FE"/>
<path d="M55.4982 48.3369L46.4999 90.268C46.444 90.4184 46.3418 90.5236 46.2212 90.5865C46.5155 90.7402 46.9229 90.6349 47.0594 90.268L62.6672 48.3369H55.4982Z" fill="#60B7FF"/>
<path d="M25.3558 36.6693L30.3349 48.3371L46.5001 35.7852H26.0092C25.5495 35.7852 25.2208 36.2298 25.3558 36.6693Z" fill="#D1F2FE"/>
<path d="M67.6548 36.6356L62.6676 48.3371L46.5001 35.7852H67.0263C67.4684 35.7852 67.7844 36.213 67.6548 36.6356Z" fill="#D1F2FE"/>
<path d="M62.6674 48.3371L46.5001 35.7852L30.335 48.3371H62.6674Z" fill="#F9F7F8"/>
<path d="M46.5001 35.7852L55.4983 48.3371H62.6674L46.5001 35.7852Z" fill="#DEDBEE"/>
<path d="M81.8299 48.9389C81.6633 48.6183 81.4643 48.3219 81.2327 48.05L69.5015 35.5124C68.8644 34.8313 67.9639 34.4408 67.0312 34.4408H67.0262H54.6564V21.7304H62.5362C65.261 21.7304 66.7002 18.2507 64.7125 16.3353L48.6762 0.882208C47.4559 -0.29389 45.5439 -0.294249 44.3235 0.882208L39.1251 5.89147C38.5905 6.40657 38.5747 7.25755 39.09 7.79201C39.6051 8.32647 40.4561 8.34242 40.9906 7.82714L46.1889 2.81788C46.3633 2.64976 46.6364 2.64976 46.8106 2.81788L62.8469 18.271C63.0902 18.6678 62.9866 18.9248 62.536 19.0418H53.312C52.5696 19.0418 51.9678 19.6435 51.9678 20.386V34.4406C48.3224 34.4406 44.6771 34.4406 41.0316 34.4406V20.386C41.0316 19.6435 40.4297 19.0418 39.6874 19.0418H30.4634C30.0128 18.9248 29.9092 18.668 30.1524 18.271L36.845 11.822C37.3796 11.3069 37.3954 10.4559 36.8801 9.92142C36.3652 9.38714 35.5142 9.37101 34.9796 9.88629L28.287 16.3353C26.3248 18.226 27.7031 21.7304 30.4634 21.7304H38.3432V34.4408H26.0088H25.9685C25.0356 34.4408 24.1352 34.8313 23.4982 35.5124L11.767 48.05C10.6425 49.2521 10.5889 51.2662 11.6512 52.5258L43.929 90.8033C45.2494 92.3693 47.746 92.3773 49.073 90.8033L58.4331 79.7035C58.9116 79.1359 58.8396 78.288 58.2721 77.8094C57.7045 77.3307 56.8564 77.4031 56.378 77.9704L50.4585 84.9904L63.6015 49.6811H78.7791C79.3507 49.6811 79.6643 50.3557 79.2958 50.7927L59.8169 73.8924C59.3384 74.46 59.4104 75.3079 59.9779 75.7865C60.5455 76.265 61.3936 76.193 61.8719 75.6255L81.3509 52.5258C82.2045 51.5139 82.3879 50.1394 81.8299 48.9389ZM76.5617 46.9927H64.7014L68.4131 38.284L76.5617 46.9927ZM46.5 37.487L58.7439 46.9927H34.2578L46.5 37.487ZM65.9829 37.1294L62.1144 46.2061L50.4234 37.1294H65.9829ZM42.5771 37.1294L33.9569 43.8227L30.8871 46.2062L27.0134 37.1292H42.5771V37.1294ZM24.5845 38.2867L28.2999 46.9929H16.4382L24.5845 38.2867ZM13.6102 50.0722C13.6648 49.9546 13.834 49.6811 14.2231 49.6811H29.4007L42.5436 84.9902L13.7064 50.7927C13.4557 50.4952 13.5557 50.1898 13.6102 50.0722ZM46.5011 87.9149L32.2697 49.6811H60.7328L46.5011 87.9149Z" fill="#212936"/>
<path d="M24.1805 79.1562C23.4382 79.1562 22.8363 79.7579 22.8363 80.5005V82.3924C22.8363 83.1349 23.4382 83.7366 24.1805 83.7366C24.9229 83.7366 25.5247 83.1349 25.5247 82.3924V80.5005C25.5247 79.7581 24.9229 79.1562 24.1805 79.1562Z" fill="#6B4EFF"/>
<path d="M24.1805 87.4199C23.4382 87.4199 22.8363 88.0216 22.8363 88.7641V90.6561C22.8363 91.3986 23.4382 92.0003 24.1805 92.0003C24.9229 92.0003 25.5247 91.3986 25.5247 90.6561V88.7641C25.5247 88.0216 24.9229 87.4199 24.1805 87.4199Z" fill="#6B4EFF"/>
<path d="M29.259 84.2344H27.367C26.6247 84.2344 26.0228 84.836 26.0228 85.5786C26.0228 86.3211 26.6247 86.9228 27.367 86.9228H29.259C30.0013 86.9228 30.6032 86.3211 30.6032 85.5786C30.6032 84.836 30.0013 84.2344 29.259 84.2344Z" fill="#6B4EFF"/>
<path d="M20.9942 84.2344H19.1024C18.36 84.2344 17.7582 84.836 17.7582 85.5786C17.7582 86.3211 18.36 86.9228 19.1024 86.9228H20.9942C21.7365 86.9228 22.3384 86.3211 22.3384 85.5786C22.3384 84.836 21.7365 84.2344 20.9942 84.2344Z" fill="#6B4EFF"/>
<path d="M68.8192 79.1562C68.0768 79.1562 67.475 79.7579 67.475 80.5005V82.3924C67.475 83.1349 68.0768 83.7366 68.8192 83.7366C69.5616 83.7366 70.1634 83.1349 70.1634 82.3924V80.5005C70.1634 79.7581 69.5617 79.1562 68.8192 79.1562Z" fill="#6B4EFF"/>
<path d="M68.8192 87.4199C68.0768 87.4199 67.475 88.0216 67.475 88.7641V90.6561C67.475 91.3986 68.0768 92.0003 68.8192 92.0003C69.5616 92.0003 70.1634 91.3986 70.1634 90.6561V88.7641C70.1634 88.0216 69.5617 87.4199 68.8192 87.4199Z" fill="#6B4EFF"/>
<path d="M73.8975 84.2344H72.0057C71.2633 84.2344 70.6615 84.836 70.6615 85.5786C70.6615 86.3211 71.2633 86.9228 72.0057 86.9228H73.8975C74.6398 86.9228 75.2417 86.3211 75.2417 85.5786C75.2417 84.836 74.64 84.2344 73.8975 84.2344Z" fill="#6B4EFF"/>
<path d="M65.633 84.2344H63.7411C62.9987 84.2344 62.3969 84.836 62.3969 85.5786C62.3969 86.3211 62.9987 86.9228 63.7411 86.9228H65.633C66.3754 86.9228 66.9772 86.3211 66.9772 85.5786C66.9772 84.836 66.3754 84.2344 65.633 84.2344Z" fill="#6B4EFF"/>
<path d="M85.9598 63.7148C85.2175 63.7148 84.6156 64.3165 84.6156 65.0591V66.951C84.6156 67.6935 85.2175 68.2952 85.9598 68.2952C86.7022 68.2952 87.304 67.6935 87.304 66.951V65.0591C87.304 64.3165 86.7022 63.7148 85.9598 63.7148Z" fill="#6B4EFF"/>
<path d="M85.9598 71.9805C85.2175 71.9805 84.6156 72.5821 84.6156 73.3247V75.2166C84.6156 75.9592 85.2175 76.5608 85.9598 76.5608C86.7022 76.5608 87.304 75.9592 87.304 75.2166V73.3247C87.304 72.5823 86.7022 71.9805 85.9598 71.9805Z" fill="#6B4EFF"/>
<path d="M91.0383 68.793H89.1463C88.404 68.793 87.8021 69.3946 87.8021 70.1372C87.8021 70.8797 88.404 71.4814 89.1463 71.4814H91.0383C91.7806 71.4814 92.3825 70.8797 92.3825 70.1372C92.3825 69.3946 91.7806 68.793 91.0383 68.793Z" fill="#6B4EFF"/>
<path d="M82.7734 68.793H80.8817C80.1393 68.793 79.5375 69.3946 79.5375 70.1372C79.5375 70.8797 80.1393 71.4814 80.8817 71.4814H82.7734C83.5158 71.4814 84.1177 70.8797 84.1177 70.1372C84.1177 69.3946 83.5158 68.793 82.7734 68.793Z" fill="#6B4EFF"/>
<path d="M7.03989 63.7148C6.29753 63.7148 5.69568 64.3165 5.69568 65.0591V66.951C5.69568 67.6935 6.29753 68.2952 7.03989 68.2952C7.78226 68.2952 8.38411 67.6935 8.38411 66.951V65.0591C8.38411 64.3165 7.78226 63.7148 7.03989 63.7148Z" fill="#6B4EFF"/>
<path d="M7.03989 71.9805C6.29753 71.9805 5.69568 72.5821 5.69568 73.3247V75.2166C5.69568 75.9592 6.29753 76.5608 7.03989 76.5608C7.78226 76.5608 8.38411 75.9592 8.38411 75.2166V73.3247C8.38411 72.5823 7.78226 71.9805 7.03989 71.9805Z" fill="#6B4EFF"/>
<path d="M12.1182 68.793H10.2264C9.48405 68.793 8.8822 69.3946 8.8822 70.1372C8.8822 70.8797 9.48405 71.4814 10.2264 71.4814H12.1182C12.8605 71.4814 13.4624 70.8797 13.4624 70.1372C13.4624 69.3946 12.8605 68.793 12.1182 68.793Z" fill="#6B4EFF"/>
<path d="M3.85353 68.793H1.96177C1.2194 68.793 0.617554 69.3946 0.617554 70.1372C0.617554 70.8797 1.2194 71.4814 1.96177 71.4814H3.85371C4.59607 71.4814 5.19792 70.8797 5.19792 70.1372C5.19792 69.3946 4.59589 68.793 3.85353 68.793Z" fill="#6B4EFF"/>
<path d="M76.9989 23.2286C77.7412 23.2286 78.3431 22.627 78.3431 21.8844V19.9927C78.3431 19.2501 77.7412 18.6484 76.9989 18.6484C76.2565 18.6484 75.6547 19.2501 75.6547 19.9927V21.8844C75.6547 22.627 76.2565 23.2286 76.9989 23.2286Z" fill="#6B4EFF"/>
<path d="M76.9989 31.4925C77.7412 31.4925 78.3431 30.8908 78.3431 30.1483V28.2563C78.3431 27.5138 77.7412 26.9121 76.9989 26.9121C76.2565 26.9121 75.6547 27.5138 75.6547 28.2563V30.1483C75.6547 30.8906 76.2565 31.4925 76.9989 31.4925Z" fill="#6B4EFF"/>
<path d="M80.1854 26.415H82.0773C82.8197 26.415 83.4216 25.8133 83.4216 25.0708C83.4216 24.3282 82.8197 23.7266 82.0773 23.7266H80.1854C79.443 23.7266 78.8412 24.3282 78.8412 25.0708C78.8412 25.8133 79.443 26.415 80.1854 26.415Z" fill="#6B4EFF"/>
<path d="M71.9208 26.415H73.8125C74.5549 26.415 75.1567 25.8133 75.1567 25.0708C75.1567 24.3282 74.5549 23.7266 73.8125 23.7266H71.9208C71.1784 23.7266 70.5765 24.3282 70.5765 25.0708C70.5765 25.8133 71.1784 26.415 71.9208 26.415Z" fill="#6B4EFF"/>
<path d="M16.0008 23.2286C16.7432 23.2286 17.345 22.627 17.345 21.8844V19.9927C17.345 19.2501 16.7432 18.6484 16.0008 18.6484C15.2585 18.6484 14.6566 19.2501 14.6566 19.9927V21.8844C14.6566 22.627 15.2585 23.2286 16.0008 23.2286Z" fill="#6B4EFF"/>
<path d="M16.0008 31.4925C16.7432 31.4925 17.345 30.8908 17.345 30.1483V28.2563C17.345 27.5138 16.7432 26.9121 16.0008 26.9121C15.2585 26.9121 14.6566 27.5138 14.6566 28.2563V30.1483C14.6566 30.8906 15.2585 31.4925 16.0008 31.4925Z" fill="#6B4EFF"/>
<path d="M19.1874 26.415H21.0791C21.8215 26.415 22.4233 25.8133 22.4233 25.0708C22.4233 24.3282 21.8215 23.7266 21.0791 23.7266H19.1874C18.445 23.7266 17.8431 24.3282 17.8431 25.0708C17.8431 25.8133 18.445 26.415 19.1874 26.415Z" fill="#6B4EFF"/>
<path d="M10.9237 26.415H12.8156C13.558 26.415 14.1598 25.8133 14.1598 25.0708C14.1598 24.3282 13.558 23.7266 12.8156 23.7266H10.9237C10.1813 23.7266 9.57947 24.3282 9.57947 25.0708C9.57947 25.8133 10.1813 26.415 10.9237 26.415Z" fill="#6B4EFF"/>
</svg>
