<svg xmlns="http://www.w3.org/2000/svg" version="1.1" xmlns:xlink="http://www.w3.org/1999/xlink" width="512" height="512" x="0" y="0" viewBox="0 0 343.432 343.432" style="enable-background:new 0 0 512 512" xml:space="preserve" class=""><g><path d="M298.035 151.536c.159-2.158.242-4.338.242-6.536 0-48.412-39.245-87.658-87.657-87.658-29.496 0-55.589 14.569-71.477 36.903a69.535 69.535 0 0 0-15.311-1.716c-33.779 0-61.909 24.133-68.122 56.095C23.938 154.988 0 183.034 0 216.678c0 38.335 31.077 69.412 69.412 69.412H274.02c38.336 0 69.412-31.077 69.412-69.412 0-29.893-18.898-55.368-45.397-65.142z" style="" fill="#5e96dc" data-original="#5e96dc" class=""></path><path d="m197.642 244.478.007-75.18 25.444.001-47.566-47.567-47.566 47.566h25.447v75.18z" style="" fill="#ffffff" data-original="#ffffff" class=""></path></g></svg>