<svg width="120" height="120" viewBox="0 0 120 120" fill="none" xmlns="http://www.w3.org/2000/svg">
<g clip-path="url(#clip0_36_134)">
<path d="M73.5471 22.2455C73.5471 22.2455 85.0455 7.32195 81.7392 3.04063C80.6123 1.58164 79.6514 3.56305 77.321 3.56305C74.5828 3.56305 74.5828 1.77148 71.8444 1.77148C69.1064 1.77148 69.1064 3.56305 66.3684 3.56305C63.6307 3.56305 63.6307 1.77148 60.8929 1.77148C58.1552 1.77148 58.1552 3.56305 55.4172 3.56305C53.084 3.56305 52.1271 1.55586 50.9927 3.01555C47.6847 7.2732 59.0151 22.2453 59.0151 22.2453C8.97489 55.1417 25.1095 99.8795 54.6541 99.8795H78.0853C107.719 99.8795 123.754 55.2509 73.5471 22.2455Z" fill="#EABC6B"/>
<path d="M73.547 22.2455C73.547 22.2455 85.0455 7.32195 81.7391 3.04062C80.6122 1.58164 79.6513 3.56305 77.3209 3.56305C74.5827 3.56305 74.5827 1.77148 71.8443 1.77148C69.1063 1.77148 69.1063 3.56305 66.3683 3.56305C66.2336 3.56305 66.1103 3.55555 65.9882 3.54711C64.888 8.26273 59.9305 15.6095 57.0937 19.543C58.2109 21.1824 59.0151 22.2453 59.0151 22.2453C58.3476 22.6841 57.6944 23.1254 57.0503 23.5684C104.86 56.4303 88.863 99.8792 59.6233 99.8792H78.0852C107.719 99.8794 123.754 55.2509 73.547 22.2455Z" fill="#E8AE4D"/>
<path d="M75.6852 27.5535C69.0038 29.2407 62.4029 29.241 55.7204 27.5535C53.3944 26.9661 52.0761 24.3507 52.913 21.9735C52.9224 21.947 52.9318 21.9203 52.9412 21.8938C53.6429 19.9007 55.6332 18.7822 57.5839 19.2718C63.0549 20.6455 68.3492 20.6457 73.8219 19.2718C75.7726 18.782 77.7627 19.9007 78.4646 21.8938C78.474 21.9203 78.4834 21.947 78.4927 21.9735C79.3295 24.351 78.0111 26.9661 75.6852 27.5535Z" fill="#FFE07D"/>
<path d="M12.8633 107.555L38.3084 117.026C40.4696 117.83 42.7569 118.242 45.0627 118.242H71.2859C74.9558 118.242 78.5499 117.199 81.6498 115.235L114.484 94.4292C116.65 92.5056 117.052 89.2729 115.422 86.8778C113.639 84.2573 110.689 83.8017 107.443 85.3366L75.4759 99.412L75.5136 94.2255C75.0903 89.9685 71.8126 86.5521 67.5767 85.9525L48.1098 83.7112C43.6191 83.0758 41.375 81.5709 37.4602 79.2808C32.1155 76.1542 26.0349 74.5063 19.843 74.5063H12.8633V107.555Z" fill="#FFDDCE"/>
<path d="M12.8633 107.555L38.3084 117.026C40.4696 117.83 42.7569 118.242 45.0627 118.242H71.2859C74.9558 118.242 78.5499 117.199 81.6498 115.235L114.484 94.4292C116.65 92.5056 117.052 89.2729 115.422 86.8778C113.639 84.2573 110.689 83.8017 107.443 85.3366L75.4759 99.412L75.5136 94.2255C75.0903 89.9685 71.8126 86.5521 67.5767 85.9525L48.1098 83.7112C43.6191 83.0758 41.375 81.5709 37.4602 79.2808C32.1155 76.1542 26.0349 74.5063 19.843 74.5063H12.8633V107.555Z" fill="#FFDDCE"/>
<path d="M115.422 86.8782C113.639 84.2576 110.689 83.802 107.443 85.3369L98.6502 89.2086C99.076 89.8826 99.4147 90.4205 99.4147 90.4205C101.044 92.8156 100.643 96.0481 98.4767 97.9719L79.3449 110.095C76.8252 111.248 74.0778 111.854 71.2859 111.854H45.0627C42.7569 111.854 40.4694 111.442 38.3084 110.637L12.8633 101.166V107.555L38.3084 117.026C40.4696 117.83 42.7569 118.242 45.0627 118.242H66.4873H71.2859C74.9558 118.242 78.5499 117.199 81.6498 115.235L114.484 94.4297C116.65 92.506 117.052 89.2733 115.422 86.8782Z" fill="#FFCBBE"/>
<path d="M73.1269 88.8828L73.126 89.008L73.2085 88.9716C73.182 88.9414 73.1541 88.9123 73.1269 88.8828Z" fill="#F5DBCC"/>
<path d="M18.3386 112.623C18.3386 114.469 16.8419 115.966 14.9957 115.966H6.92785C5.08168 115.966 3.58496 114.469 3.58496 112.623V71.691C3.58496 69.8449 5.08168 68.3481 6.92785 68.3481H14.9957C16.8419 68.3481 18.3386 69.8449 18.3386 71.691V112.623Z" fill="#407093"/>
<path d="M116.875 85.8898C114.637 82.6001 110.84 81.7969 106.715 83.738L104.528 84.7005C107.976 77.3529 108.403 69.1622 106.687 61.4255C104.716 52.5396 99.956 43.9315 92.5385 35.8402C91.8827 35.1246 90.7711 35.0763 90.0553 35.7323C89.3397 36.3881 89.2915 37.4998 89.9475 38.2155C96.9426 45.8459 101.42 53.9109 103.256 62.1865C105.189 70.9036 104.064 79.8933 99.1305 87.0771L77.2535 96.7097L77.2715 94.2389C77.272 94.1766 77.2692 94.1142 77.2629 94.0521C76.7578 88.9739 72.8761 84.9279 67.8232 84.213C67.8082 84.2107 67.7932 84.2088 67.7779 84.2072L48.334 81.9684C40.8572 80.9041 38.9315 76.4236 28.8056 73.8687C28.106 67.9319 29.0386 61.6111 31.5947 55.2743C35.4443 45.731 42.9754 36.4591 53.4159 28.3889C57.3072 31.148 74.6681 31.4913 78.5531 27.9321C80.5434 29.4436 82.443 31.0012 84.2126 32.5779C84.5475 32.8765 84.9651 33.0232 85.3811 33.0232C85.8649 33.0232 86.3468 32.8247 86.6939 32.4349C87.3396 31.7102 87.2754 30.5993 86.5507 29.9536C84.611 28.2255 82.5246 26.5205 80.3362 24.8726C80.849 22.698 80.1314 20.153 78.2376 18.638C83.7405 10.2914 85.3411 4.82836 83.1302 1.96617C81.6117 -2.80145e-06 79.7226 0.922732 78.9159 1.31695C77.5486 1.98445 76.803 2.01961 75.5449 1.19648C73.1447 -0.374065 70.6218 -0.42469 68.1443 1.19648C66.8702 2.03015 65.8669 2.03015 64.5933 1.19648C62.1928 -0.374065 59.6709 -0.42469 57.1929 1.19648C55.9202 2.02945 55.1719 1.97789 53.8261 1.30898C53.0203 0.908435 51.1333 -0.0295341 49.6052 1.93687C47.444 4.71843 48.8899 10.0092 54.0215 18.0719C53.7072 18.2419 53.4077 18.4413 53.1281 18.6691C51.0872 16.5138 47.7433 14.2659 42.9077 14.8059C38.8969 15.2548 35.9393 13.9294 34.1641 12.7387C33.3579 12.1987 32.2662 12.4139 31.7257 13.2197C31.1852 14.0259 31.4006 15.1177 32.2066 15.6581C34.4695 17.1752 38.2303 18.8641 43.2977 18.2991C47.0336 17.88 49.5687 19.7892 51.1467 21.7322C51.1251 21.8072 51.1052 21.8827 51.0867 21.9581C49.7407 21.9792 47.729 22.1048 45.5137 22.5656C40.1859 23.674 36.2311 26.2059 34.0765 29.8884C33.5864 30.7261 33.8681 31.8028 34.7058 32.2931C35.5437 32.7832 36.6201 32.5012 37.1102 31.6636C40.3151 26.1865 48.1378 25.5166 51.2449 25.4747C51.2583 25.5134 51.274 25.5516 51.288 25.59C40.2002 34.143 32.4808 43.6814 28.3352 53.9587C25.7149 60.4549 24.6682 66.963 25.1995 73.148C23.5141 72.8986 21.8093 72.7648 20.0962 72.753V71.6901C20.0962 68.8779 17.8083 66.5901 14.996 66.5901H6.92787C4.11561 66.5901 1.82764 68.8781 1.82764 71.6901V112.622C1.82764 115.435 4.11561 117.723 6.92787 117.723H14.9958C17.808 117.723 20.096 115.435 20.096 112.622V112.122L37.6954 118.672C40.0605 119.552 42.5393 119.999 45.0628 119.999H71.2861C75.2953 119.999 79.2044 118.864 82.5907 116.719C117.573 94.5422 115.449 95.9219 115.651 95.7429C118.469 93.2416 118.995 89.0055 116.875 85.8898ZM75.255 25.8494C68.8279 27.4723 62.579 27.4723 56.1506 25.8494C53.3922 25.1522 54.1915 20.2327 57.1558 20.9761C62.9069 22.4198 68.4982 22.4198 74.2497 20.9761C77.1626 20.2448 78.0576 25.1412 75.255 25.8494ZM52.2208 4.43672C52.2347 4.44351 52.2485 4.45054 52.2616 4.45711C54.6403 5.63929 56.7246 5.70351 59.1173 4.13812C62.1117 2.17804 62.4368 5.32078 66.3684 5.32078C68.2612 5.32078 69.3058 4.63734 70.0685 4.13812C71.3428 3.30422 72.3464 3.30468 73.6205 4.13812C76.0237 5.71078 78.0576 5.6332 80.5055 4.45265C80.8671 5.75625 80.0487 9.64242 74.8371 17.4016C72.2491 17.3576 68.4935 19.8994 57.8618 17.5334C52.6615 9.67382 51.8573 5.74992 52.2208 4.43672ZM113.413 93.0281L80.7094 113.751C77.8868 115.539 74.6283 116.485 71.2863 116.485H45.063C42.9595 116.485 40.8933 116.113 38.9217 115.379L20.096 108.372V89.445C20.096 88.4742 19.3092 87.6874 18.3387 87.6874C17.3681 87.6874 16.5813 88.4742 16.5813 89.445V112.623C16.5813 113.497 15.87 114.209 14.996 114.209H6.92787C6.05365 114.209 5.34256 113.497 5.34256 112.623V71.6911C5.34256 70.8169 6.05365 70.106 6.92787 70.106H14.9958C15.87 70.106 16.5811 70.8171 16.5811 71.6911V81.2287C16.5811 82.1995 17.3679 82.9863 18.3384 82.9863C19.309 82.9863 20.0958 82.1995 20.0958 81.2287V76.2689C34.6343 76.3802 37.9031 84.0431 47.8636 85.4519C47.8786 85.4543 47.8936 85.4562 47.9086 85.4578L67.3516 87.6963C70.7561 88.1878 73.3762 90.8988 73.7554 94.312L73.7311 97.6551H55.5987C54.6281 97.6551 53.8411 98.4419 53.8411 99.4127C53.8411 100.383 54.6279 101.17 55.5987 101.17H75.4758C75.6977 101.17 75.9541 101.121 76.1772 101.024C76.2131 101.008 108.114 86.9625 108.151 86.9461C110.451 85.9242 112.547 85.7782 113.969 87.8674C115.074 89.4909 114.829 91.6858 113.413 93.0281Z" fill="black"/>
<path d="M66.1661 79.7389C67.1366 79.7389 67.9237 78.9521 67.9237 77.9813V75.068C72.8575 74.2674 75.7363 70.2739 76.3626 66.5483C77.1449 61.8943 74.7072 57.8469 70.1523 56.2369C69.3475 55.9524 68.6069 55.6803 67.9234 55.4176V44.2116C70.0026 44.5564 71.2509 45.6324 71.3418 45.7128C72.0557 46.362 73.1606 46.314 73.8156 45.6038C74.4738 44.8904 74.4288 43.7785 73.7153 43.1204C73.5913 43.006 71.4388 41.0679 67.9234 40.6627V38.1633C67.9234 37.1926 67.1366 36.4058 66.1659 36.4058C65.1953 36.4058 64.4085 37.1926 64.4085 38.1633V40.8047C63.9848 40.8858 63.5507 40.989 63.1047 41.1233C60.1234 42.0212 57.895 44.5775 57.2887 47.7943C56.7386 50.7134 57.6641 53.5208 59.7039 55.1206C60.8751 56.0391 62.3493 56.8801 64.4085 57.7791V71.6778C62.376 71.5918 61.1249 71.2102 58.9424 69.7824C58.1303 69.2513 57.0409 69.4784 56.5096 70.291C55.9783 71.1031 56.2059 72.1925 57.0182 72.7238C59.8872 74.6007 61.8051 75.0903 64.4085 75.1915V77.9813C64.4085 78.9521 65.1953 79.7389 66.1661 79.7389ZM61.8733 52.355C60.8699 51.568 60.4366 50.0698 60.7429 48.4454C61.027 46.9388 62.0627 45.1083 64.1186 44.4891C64.2163 44.4596 64.3124 44.4343 64.4085 44.4085V53.9019C63.3562 53.3764 62.5309 52.8708 61.8733 52.355ZM68.9809 59.551C73.3544 61.0967 73.0834 64.8519 72.8962 65.9658C72.5085 68.2723 70.8154 70.7347 67.9234 71.4758V59.1701C68.2656 59.2953 68.6151 59.4216 68.9809 59.551Z" fill="black"/>
</g>
<defs>
<clipPath id="clip0_36_134">
<rect width="120" height="120" fill="white"/>
</clipPath>
</defs>
</svg>
