<svg xmlns="http://www.w3.org/2000/svg" version="1.1" xmlns:xlink="http://www.w3.org/1999/xlink" width="512" height="512" x="0" y="0" viewBox="0 0 64 64" style="enable-background:new 0 0 512 512" xml:space="preserve" class=""><g><path fill="#e09f44" d="m54.845 25.85-22.84 11.096L9.168 25.85a3.325 3.325 0 0 1 1.419-1.242l19.871-9.661a3.593 3.593 0 0 1 3.097 0l19.872 9.661c.58.274 1.064.71 1.42 1.242z" opacity="1" data-original="#e09f44"></path><path d="M54.845 25.85 32.006 36.945V14.591c.516 0 1.064.113 1.548.355l19.872 9.661c.58.274 1.064.71 1.42 1.242z" opacity="1" fill="#00000010" data-original="#00000010"></path><path fill="#131319" d="M32.007 37.978c-.155 0-.309-.034-.452-.103L8.717 26.777a1.03 1.03 0 0 1-.42-1.483 4.356 4.356 0 0 1 1.858-1.625l19.85-9.652A4.655 4.655 0 0 1 34 14.013l19.879 9.665a4.549 4.549 0 0 1 1.826 1.598 1.03 1.03 0 0 1-.407 1.501L32.458 37.875a1.042 1.042 0 0 1-.451.103zM10.96 25.573l21.047 10.225L53.05 25.573l-.066-.033-19.881-9.666a2.563 2.563 0 0 0-2.197.001l-19.869 9.66c-.026.012-.052.024-.078.038z" opacity="1" data-original="#131319" class=""></path><path fill="#ffe691" d="M32.011 36.95v26.018c-.537 0-1.074-.103-1.549-.351l-19.885-9.664a3.494 3.494 0 0 1-1.982-3.16V27.783c0-.681.207-1.363.578-1.941z" opacity="1" data-original="#ffe691"></path><path fill="#ffdc6e" d="M55.406 27.782v22.012a3.494 3.494 0 0 1-1.982 3.16L33.56 62.616a3.46 3.46 0 0 1-1.549.35V36.95L54.85 25.84c.35.58.557 1.26.557 1.942z" opacity="1" data-original="#ffdc6e"></path><path d="M55.41 27.785V49.75c0 1.371-.775 2.597-2 3.194l-19.87 9.66a3.592 3.592 0 0 1-3.097 0l-18.79-9.128c12.952 3.355 26.225.339 34.822-8.274 5.854-5.854 8.064-12.822 8.935-17.418z" opacity="1" fill="#00000010" data-original="#00000010"></path><g fill="#131319"><path d="M32.01 64c-.75 0-1.43-.157-2.025-.468l-19.86-9.649c-1.553-.738-2.562-2.345-2.562-4.089V27.782c0-.88.256-1.745.742-2.5.281-.44.846-.6 1.32-.37l22.837 11.11c.355.172.581.532.581.928v26.018c0 .57-.462 1.032-1.032 1.032zM9.69 27.24a2.48 2.48 0 0 0-.062.542v22.012c0 .952.546 1.825 1.392 2.226l19.894 9.667c.021.013.042.023.065.035V37.595z" fill="#131319" opacity="1" data-original="#131319" class=""></path><path d="M32.01 64c-.57 0-1.031-.462-1.031-1.032V36.95c0-.396.225-.756.58-.928l22.839-11.11a1.037 1.037 0 0 1 1.335.393 4.85 4.85 0 0 1 .705 2.477v22.012a4.543 4.543 0 0 1-2.57 4.091l-19.857 9.66c-.6.3-1.276.455-2 .455zm1.033-26.405V61.72a.67.67 0 0 0 .055-.026l19.875-9.668a2.474 2.474 0 0 0 1.4-2.232V27.782c0-.176-.02-.356-.058-.534z" fill="#131319" opacity="1" data-original="#131319" class=""></path></g><path fill="#f0bd59" d="M23.15 45.123 5.51 36.541a2.837 2.837 0 0 1-1.052-4.222l4.719-6.477L32 36.946l-5.316 7.297a2.837 2.837 0 0 1-3.534.88z" opacity="1" data-original="#f0bd59" class=""></path><path fill="#131319" d="M24.392 46.442c-.57 0-1.15-.127-1.693-.392L5.057 37.468a3.865 3.865 0 0 1-1.435-5.757l4.72-6.477c.296-.403.836-.54 1.286-.32l22.824 11.104a1.033 1.033 0 0 1 .383 1.536l-5.316 7.297a3.863 3.863 0 0 1-3.127 1.59zm-.79-2.246a1.803 1.803 0 0 0 2.248-.56l4.59-6.301L9.502 27.148l-4.21 5.778a1.803 1.803 0 0 0 .67 2.686z" opacity="1" data-original="#131319" class=""></path><path fill="#f0bd59" d="m40.848 45.123 17.642-8.582a2.837 2.837 0 0 0 1.052-4.222l-4.719-6.477-22.825 11.104 5.316 7.297a2.837 2.837 0 0 0 3.534.88z" opacity="1" data-original="#f0bd59" class=""></path><path fill="#131319" d="M39.608 46.442a3.87 3.87 0 0 1-3.13-1.591l-5.314-7.299a1.033 1.033 0 0 1 .383-1.534l22.825-11.105c.45-.218.992-.084 1.286.32l4.72 6.478c.675.927.905 2.1.627 3.214s-1.03 2.04-2.063 2.543L41.3 46.05a3.86 3.86 0 0 1-1.691.392zm1.24-1.319h.02zm-7.289-7.788 4.589 6.3a1.807 1.807 0 0 0 2.248.56l17.643-8.582c.482-.236.833-.667.962-1.188s.024-1.066-.293-1.499l-4.21-5.778z" opacity="1" data-original="#131319" class=""></path><circle cx="31.999" cy="15.073" r="14.04" fill="#f7524b" opacity="1" data-original="#f7524b"></circle><path fill="#f0f0fc" d="M38.563 8.51a2.677 2.677 0 0 0-3.786 0l-2.778 2.777-2.777-2.778a2.677 2.677 0 1 0-3.786 3.786l2.778 2.778-2.778 2.777a2.677 2.677 0 1 0 3.786 3.786l2.777-2.777 2.778 2.777a2.677 2.677 0 0 0 3.786-3.786l-2.778-2.777 2.778-2.778a2.677 2.677 0 0 0 0-3.786z" opacity="1" data-original="#f0f0fc"></path><path d="M46.042 15.077c0 7.742-6.296 14.038-14.038 14.038a14.006 14.006 0 0 1-13.13-9.104c5.388 3.902 12.779 4.005 17.775.124 4.439-3.448 6.38-9.518 4.955-15.278a13.925 13.925 0 0 1 4.438 10.22z" opacity="1" fill="#00000010" data-original="#00000010"></path><g fill="#131319"><path d="M31.999 30.145c-8.31 0-15.072-6.76-15.072-15.072S23.688 0 32 0 47.07 6.761 47.07 15.073 40.31 30.145 32 30.145zm0-28.08c-7.173 0-13.007 5.835-13.007 13.008S24.826 28.08 31.999 28.08s13.008-5.836 13.008-13.008S39.172 2.065 31.999 2.065z" fill="#131319" opacity="1" data-original="#131319" class=""></path><path d="M36.67 23.453a3.682 3.682 0 0 1-2.623-1.087L32 20.319l-2.048 2.047a3.712 3.712 0 0 1-5.245 0 3.713 3.713 0 0 1 0-5.246l2.048-2.047-2.048-2.048c-1.446-1.446-1.446-3.8 0-5.246s3.8-1.444 5.245 0L32 9.827l2.048-2.048c1.397-1.401 3.84-1.403 5.246 0a3.715 3.715 0 0 1 0 5.246l-2.048 2.048 2.048 2.047a3.715 3.715 0 0 1 0 5.246 3.689 3.689 0 0 1-2.623 1.087zM32 17.827c.264 0 .528.1.73.302l2.778 2.777c.62.621 1.705.621 2.326 0a1.648 1.648 0 0 0 0-2.326l-2.778-2.778a1.032 1.032 0 0 1 0-1.46l2.778-2.776a1.648 1.648 0 0 0 0-2.327c-.62-.621-1.705-.621-2.326 0l-2.778 2.777a1.032 1.032 0 0 1-1.46 0L28.492 9.24a1.648 1.648 0 0 0-2.326 0 1.648 1.648 0 0 0 0 2.327l2.777 2.777a1.032 1.032 0 0 1 0 1.46l-2.777 2.777a1.645 1.645 0 0 0 2.326 2.327l2.777-2.778c.202-.202.466-.302.73-.302z" fill="#131319" opacity="1" data-original="#131319" class=""></path></g></g></svg>