<svg width="84" height="58" viewBox="0 0 84 58" fill="none" xmlns="http://www.w3.org/2000/svg">
<path d="M83.686 21.5625C83.6943 21.477 83.6819 21.3907 83.6501 21.3109V21.2391C83.6429 21.1626 83.6183 21.0889 83.5782 21.0234L78.547 8.48125C78.231 7.67956 77.6822 6.9909 76.9711 6.50409C76.2601 6.01727 75.4196 5.75462 74.5579 5.75H60.686V1.4375C60.686 1.05625 60.5346 0.690618 60.265 0.421034C59.9954 0.151451 59.6298 0 59.2485 0H4.62353C3.47979 0 2.38289 0.454351 1.57414 1.2631C0.765386 2.07185 0.311035 3.16875 0.311035 4.3125V44.5625C0.311035 45.7062 0.765386 46.8032 1.57414 47.6119C2.38289 48.4207 3.47979 48.875 4.62353 48.875H10.4813C10.8338 51.2633 12.0332 53.4453 13.8606 55.0229C15.6881 56.6005 18.0218 57.4685 20.436 57.4685C22.8502 57.4685 25.184 56.6005 27.0114 55.0229C28.8389 53.4453 30.0383 51.2633 30.3907 48.875H53.6063C53.9588 51.2633 55.1582 53.4453 56.9856 55.0229C58.8131 56.6005 61.1468 57.4685 63.561 57.4685C65.9752 57.4685 68.309 56.6005 70.1364 55.0229C71.9639 53.4453 73.1633 51.2633 73.5157 48.875H79.3735C80.5173 48.875 81.6142 48.4207 82.4229 47.6119C83.2317 46.8032 83.686 45.7062 83.686 44.5625V21.5625ZM74.5579 8.625C74.8438 8.62558 75.1229 8.71137 75.3598 8.8714C75.5966 9.03144 75.7804 9.25845 75.8876 9.52344L80.1282 20.125H60.686V8.625H74.5579ZM4.62353 2.875H57.811V28.75H3.18603V4.3125C3.18603 3.93125 3.33749 3.56562 3.60707 3.29603C3.87665 3.02645 4.24229 2.875 4.62353 2.875ZM3.18603 44.5625V31.625H57.811V39.1719C56.6825 39.9641 55.7276 40.9783 55.0046 42.1524C54.2816 43.3264 53.8058 44.6357 53.6063 46H30.3907C30.0383 43.6117 28.8389 41.4297 27.0114 39.8521C25.184 38.2745 22.8502 37.4066 20.436 37.4066C18.0218 37.4066 15.6881 38.2745 13.8606 39.8521C12.0332 41.4297 10.8338 43.6117 10.4813 46H4.62353C4.24229 46 3.87665 45.8486 3.60707 45.579C3.33749 45.3094 3.18603 44.9438 3.18603 44.5625ZM20.436 54.625C19.0145 54.625 17.6249 54.2035 16.4429 53.4137C15.2609 52.6239 14.3397 51.5014 13.7956 50.188C13.2516 48.8747 13.1093 47.4295 13.3866 46.0353C13.664 44.6411 14.3485 43.3604 15.3537 42.3552C16.3589 41.35 17.6396 40.6654 19.0338 40.3881C20.4281 40.1108 21.8732 40.2531 23.1866 40.7971C24.4999 41.3411 25.6224 42.2624 26.4122 43.4443C27.202 44.6263 27.6235 46.0159 27.6235 47.4375C27.6141 49.3408 26.8538 51.1635 25.5079 52.5094C24.1621 53.8553 22.3394 54.6156 20.436 54.625ZM63.561 54.625C62.1395 54.625 60.7498 54.2035 59.5679 53.4137C58.3859 52.6239 57.4646 51.5014 56.9206 50.188C56.3766 48.8747 56.2343 47.4295 56.5116 46.0353C56.789 44.6411 57.4735 43.3604 58.4787 42.3552C59.4839 41.35 60.7646 40.6654 62.1588 40.3881C63.5531 40.1108 64.9982 40.2531 66.3116 40.7971C67.6249 41.3411 68.7474 42.2624 69.5372 43.4443C70.327 44.6263 70.7485 46.0159 70.7485 47.4375C70.7391 49.3408 69.9788 51.1635 68.6329 52.5094C67.287 53.8553 65.4644 54.6156 63.561 54.625ZM80.811 44.5625C80.811 44.9438 80.6596 45.3094 80.39 45.579C80.1204 45.8486 79.7548 46 79.3735 46H73.5157C73.1773 43.6028 71.983 41.409 70.1533 39.8237C68.3235 38.2383 65.982 37.3686 63.561 37.375C62.5862 37.3696 61.6164 37.5151 60.686 37.8063V23H80.811V44.5625Z" fill="black"/>
</svg>
