<svg width="25" height="25" viewBox="0 0 25 25" fill="none" xmlns="http://www.w3.org/2000/svg">
<g clip-path="url(#clip0_83_883)">
<path d="M23.9162 11.6996C23.1043 11.1996 20.4856 10.5602 16.8107 10.5602L14.8695 8.29556C14.4601 7.81792 13.8623 7.54297 13.2332 7.54297H7.42251C6.80513 7.54297 6.20815 7.76382 5.7394 8.16558L3.44868 10.1292L1.00537 10.4782C0.658398 10.5277 0.376025 10.7824 0.291016 11.1225L0.000488281 12.2843L6.46606 15.3015H24.5693V12.8648C24.5692 12.3883 24.3219 11.9496 23.9162 11.6996Z" fill="#FFB47D"/>
<path d="M24.5688 13.147C24.5688 12.2849 23.2757 11.4229 17.2413 11.4229H0.431006C0.192969 11.4229 0 11.6159 0 11.8539V14.44L8.1897 15.7331H24.5688V13.147H24.5688Z" fill="#FF9164"/>
<path d="M24.569 14.8705H4.35767L0.524664 14.0188C0.294439 13.9683 0.062066 14.1133 0.0102593 14.3461C-0.0411078 14.5784 0.105425 14.8087 0.33775 14.8602L4.217 15.7223C4.24771 15.7292 4.27886 15.7326 4.31041 15.7326H24.5689C24.8071 15.7326 25 15.5396 25 15.3016C25 15.0636 24.8073 14.8705 24.569 14.8705Z" fill="#FF7D5A"/>
<path d="M20.6893 17.0261C21.8796 17.0261 22.8444 16.0612 22.8444 14.8709C22.8444 13.6807 21.8796 12.7158 20.6893 12.7158C19.4991 12.7158 18.5342 13.6807 18.5342 14.8709C18.5342 16.0612 19.4991 17.0261 20.6893 17.0261Z" fill="#EDEDEE"/>
<path d="M20.6897 17.4565C19.2636 17.4565 18.1035 16.2965 18.1035 14.8704C18.1035 13.4442 19.2636 12.2842 20.6897 12.2842C22.1158 12.2842 23.2759 13.4442 23.2759 14.8704C23.2759 16.2965 22.1158 17.4565 20.6897 17.4565ZM20.6897 13.1462C19.7389 13.1462 18.9656 13.9195 18.9656 14.8704C18.9656 15.8212 19.7389 16.5945 20.6897 16.5945C21.6405 16.5945 22.4138 15.8212 22.4138 14.8704C22.4138 13.9195 21.6406 13.1462 20.6897 13.1462Z" fill="#504B5A"/>
<path d="M20.6892 15.7329C21.1653 15.7329 21.5513 15.347 21.5513 14.8708C21.5513 14.3947 21.1653 14.0088 20.6892 14.0088C20.2131 14.0088 19.8271 14.3947 19.8271 14.8708C19.8271 15.347 20.2131 15.7329 20.6892 15.7329Z" fill="#DCDBDE"/>
<path d="M4.3104 17.0261C5.50064 17.0261 6.46553 16.0612 6.46553 14.8709C6.46553 13.6807 5.50064 12.7158 4.3104 12.7158C3.12016 12.7158 2.15527 13.6807 2.15527 14.8709C2.15527 16.0612 3.12016 17.0261 4.3104 17.0261Z" fill="#EDEDEE"/>
<path d="M4.3103 17.4565C2.88418 17.4565 1.72412 16.2965 1.72412 14.8704C1.72412 13.4442 2.88418 12.2842 4.3103 12.2842C5.73643 12.2842 6.89648 13.4442 6.89648 14.8704C6.89644 16.2965 5.73638 17.4565 4.3103 17.4565ZM4.3103 13.1462C3.35947 13.1462 2.58618 13.9195 2.58618 14.8704C2.58618 15.8212 3.35947 16.5945 4.3103 16.5945C5.26113 16.5945 6.03442 15.8212 6.03442 14.8704C6.03442 13.9195 5.26113 13.1462 4.3103 13.1462Z" fill="#504B5A"/>
<path d="M4.3103 15.7329C4.78641 15.7329 5.17236 15.347 5.17236 14.8708C5.17236 14.3947 4.78641 14.0088 4.3103 14.0088C3.8342 14.0088 3.44824 14.3947 3.44824 14.8708C3.44824 15.347 3.8342 15.7329 4.3103 15.7329Z" fill="#DCDBDE"/>
<path d="M17.2414 14.0085H8.18979C7.95176 14.0085 7.75879 13.8155 7.75879 13.5775C7.75879 13.3395 7.95181 13.1465 8.18979 13.1465H17.2414C17.4794 13.1465 17.6724 13.3395 17.6724 13.5775C17.6725 13.8156 17.4794 14.0085 17.2414 14.0085Z" fill="#FF7D5A"/>
<path d="M24.5691 14.0085H24.1381C23.9 14.0085 23.707 13.8155 23.707 13.5775C23.707 13.3395 23.9 13.1465 24.1381 13.1465H24.5691C24.8071 13.1465 25.0001 13.3395 25.0001 13.5775C25.0001 13.8156 24.8071 14.0085 24.5691 14.0085Z" fill="#FF7D5A"/>
<path d="M3.44824 10.1292L5.73897 8.16558C6.20772 7.76382 6.80469 7.54297 7.42207 7.54297H13.2328C13.8619 7.54297 14.4596 7.81787 14.869 8.29556L16.8103 10.5602H6.60508C6.2252 10.5602 5.846 10.5288 5.47124 10.4664L3.44824 10.1292Z" fill="#FF9164"/>
<path d="M12.7587 8.28477C12.595 8.08823 12.3523 7.97461 12.0965 7.97461H8.11582C7.88721 7.97461 7.66792 8.06543 7.5063 8.2271L6.21323 9.52017C6.09893 9.63447 6.03467 9.7895 6.03467 9.95117C6.03467 10.2878 6.30757 10.5607 6.64424 10.5607H14.1954C14.3781 10.5607 14.4779 10.3476 14.3609 10.2072L12.7587 8.28477Z" fill="#625D6B"/>
<path d="M9.0519 10.5607H7.75879L8.62085 7.97461H9.48291L9.0519 10.5607Z" fill="#504B5A"/>
<path d="M24.1063 11.8535H23.7069C23.4688 11.8535 23.2759 12.0465 23.2759 12.2845C23.2759 12.5226 23.4689 12.7155 23.7069 12.7155H24.5497C24.5123 12.3803 24.3562 12.0771 24.1063 11.8535Z" fill="#EDEDEE"/>
<path d="M14.8693 8.29614C14.7661 8.17564 14.6506 8.06816 14.5258 7.97461H13.8224C13.6397 7.97461 13.5398 8.1877 13.6568 8.32813L15.259 10.2507C15.4228 10.4472 15.6654 10.5608 15.9212 10.5608H16.8105L14.8693 8.29614Z" fill="#625D6B"/>
<path d="M0 11.8539V12.2849H0.862061C1.1001 12.2849 1.29307 12.0919 1.29307 11.8539C1.29307 11.6158 1.10005 11.4229 0.862061 11.4229H0.431006C0.19292 11.4228 0 11.6158 0 11.8539Z" fill="#FF6464"/>
</g>
<defs>
<clipPath id="clip0_83_883">
<rect width="25" height="25" fill="white"/>
</clipPath>
</defs>
</svg>
