<svg xmlns="http://www.w3.org/2000/svg" version="1.1" xmlns:xlink="http://www.w3.org/1999/xlink"
    width="512" height="512" x="0" y="0" viewBox="0 0 511.999 511.999"
    style="enable-background:new 0 0 512 512" xml:space="preserve" class=""><g><path d="M487.69 272.579c-2.351-5.089-6.608-8.536-9.317-13.264-1.415-2.469-2.764-4.649-4.231-7.079-.027-.14-.111-.412-.294-.903a66.162 66.162 0 0 0-1.656-4.061c-2.185-4.848-5.773-8.854-7.433-13.944-3.276-10.045-6.177-20.539-10.651-30.139-2.269-4.869-4.995-9.399-7.716-14.011-2.93-4.967-4.184-10.599-7.434-15.353-2.609-3.816-3.726-7.993-5.694-12.224-2.438-5.239-4.957-10.321-7.859-15.303-5.529-9.493-9.272-20.055-15.019-29.385-5.458-8.861-9.685-18.189-15.129-27.031-6.022-9.78-10.078-20.809-16.617-30.245-1.727-2.493-3.683-4.838-5.705-7.131-.498-2.696-1.106-5.383-1.91-8.062-1.84-6.129-3.68-12.359-5.674-18.426-1.68-5.113-.491-10.018-2.741-15.285-1.529-3.578-6.021-5.341-9.587-5.499-5.192-.231-9.853 2.134-14.367 4.649-3.891-.442-7.616-.537-11.555-.333-5.469.284-10.953 1.152-16.421 2.078a5.813 5.813 0 0 0-1.02-.231c-4.03-.498-7.961-1.92-12.118-2.071-4.162-.151-8.447.473-12.594.747-7.596.499-15.351 1.27-22.849 2.708-8.454 1.624-16.837 4.016-25.176 6.147-8.333 2.13-16.844 3.346-25.144 5.505-16.723 4.351-33.268 8.862-50.322 11.771l-.761.128c-3.391.426-6.772 1.013-10.135 1.595-10.268 1.777-20.597 3.151-30.813 5.223-10.285 2.086-19.914 6.129-30.042 8.793-4.442 1.169-9.368-.049-13.509 2.303-3.369 1.914-6.663 4.464-10.058 6.457-1.955 1.148-4.043 1.638-5.928 3.03-2.005 1.481-3.897 3.143-5.812 4.738-3.734 3.112-7.673 6.128-10.644 9.98-5.689 7.379-9.927 15.195-12.953 23.881-1.564 4.491-4.213 8.49-5.374 13.168-.675 2.719-.798 5.675-1.74 8.322-.76 2.134-2.053 4.068-2.753 6.233-1.22 3.767-1.235 8.097-2.016 12.002-.97 4.85-.695 10.052.434 14.841 1.165 4.938 3.305 9.578 4.824 14.403.659 2.092 1.768 4.018 2.456 6.026.75 2.188.53 4.636 1.111 6.861 1.325 5.071 5.05 8.186 7.437 12.578 1.543 2.838 3.237 6.071 5.932 7.982.16.703.319 1.405.508 2.101.005.798-.007 1.6-.055 2.416-.239 4.148-1.249 8.053-.781 12.227.398 3.547-.081 7.287 1.292 10.674 1.33 3.282 4.32 7.103 6.376 10.042 2.599 3.714 6.055 5.812 9.647 8.364 4.808 3.419 10.394 5.792 12.985 11.33 6.729 14.392 8.926 30.473 14.875 45.141 2.777 6.846 5.261 13.751 9.401 19.945.922 1.38 2.008 2.805 3.193 4.225.365 2.933.767 5.831 1.217 8.901-.102.502-.203 1.003-.301 1.509-1.293 6.735-2.038 13.589 1.787 19.701 3.249 5.194 7.902 10.548 12.658 14.385a24.504 24.504 0 0 0 4.187 2.708c1.281 3.75 3.009 7.374 5.641 10.361.498 5.844.997 11.643 2.99 17.284 3.214 9.103 4.698 18.897 7.016 28.265 2.177 8.794 5.355 21.119 14.458 25.148 3.075 1.361 6.158 1.394 8.831.533a46.987 46.987 0 0 0 2.153 2.725c2.125 4.817 6.728 8.635 12.085 9.281.758.455 1.551.864 2.394 1.203 2.002.806 4.19 1.258 6.455 1.518 1.158 2.071 3.202 3.678 6.288 4.402 3.723.873 7.424.662 11.2.75 3.563.083 6.605.837 10.195.17 8.056-1.497 16.552-.662 24.549-2.484 3.647-.831 7.044-2.354 10.782-2.847 2.691-.354 5.225-.279 7.68-.629 4.057 3.407 11.382.747 12.531-4.392 1.255-5.62 1.109-11.427-1.599-16.601-2.131-4.073-7.219-4.672-10.988-2.882-6.247 2.968-13.138 4.453-19.869 5.927-1.267.278-2.499.842-3.736 1.224.662-.333-2.276-.344-3.106-.402-3.151-.221-6.859.497-10.012.71-5.679.384-11.163 2.66-16.81 2.303a8.308 8.308 0 0 0-.927-.397c-8.356-2.934-15.02-8.533-23.66-11.001-.043-.048-.077-.09-.126-.141-1.476-3.056-3.59-6.211-6.367-7.406a7.547 7.547 0 0 0-1.022-.346c-.5-1.411-1.107-2.757-2.152-4.144-.17-5.572-.084-11.007.607-16.735.977-8.086 1.794-16.084 2.89-24.107a52.225 52.225 0 0 0 3.375-1.951c3.913-2.493 7.087-5.756 10.279-9.077a375.543 375.543 0 0 0 4.447-4.723c2.772-1.014 5.51-2.299 8.043-3.361 6.128-2.569 12.092-5.477 18.141-8.218 12.205-5.531 25.791-9.708 38.887-12.496 13.581-2.891 27.431-3.828 40.922-7.203 6.067-1.518 12.244-2.406 18.214-4.287 8.44-1.335 16.86-2.843 25.258-4.589 19.469-4.045 39.075-7.82 58.423-12.349 9.536-2.232 19.199-3.695 28.694-6.141 4.173-1.076 7.748-2.849 11.677-4.421 2.709-1.084 5.554-1.727 7.494-4.067.208-.03.415-.063.622-.093 2.883-.204 5.788-.716 8.65-1.374.184-.032.37-.059.553-.093 5.242-.944 10.189-2.131 15.021-3.96 4.458-1.126 9.422-2.55 13.373-4.775 6.772-.401 13.533-8.794 14.123-14.739.526-5.257-2.832-10.562-4.979-15.211z" style="" fill="#ba3838" data-original="#ba3838" class=""></path><path d="M476.434 385.071c-1.059-.868-2.279-1.923-3.541-2.526a3.568 3.568 0 0 0-1.569-.531 56.428 56.428 0 0 0-2.392-4.755c-2.141-3.817-4.759-5.024-7.792-7.899-3.588-3.402-11.036-.063-8.973 5.223.695 1.781 1.044 3.671 1.872 5.402.912 1.904 2.457 3.002 3.54 4.707.987 1.552.704 3.397.562 5.211a8.801 8.801 0 0 0-2.221 1.396c-1.825 1.16-3.356 2.494-5.354 3.441-4.265 2.02-8.249 4.23-12.873 5.188-4.939 1.023-10.268 1.538-15.072 3.097-4.181 1.356-8.118 3.443-12.233 4.982-9.063 3.391-18.31 6.707-26.762 11.426-.388.216-.686.51-.927.836-2.857.796-5.608 1.992-8.528 2.353-3.04.376-6.134.644-9.191.825-6.155.364-12.475 2.926-18.535 4.186-6.863 1.427-13.51 2.873-20.226 4.876-3.773 1.126-7.543 2.155-11.102 3.632a5.399 5.399 0 0 0-1.728-.344c-1.951-.07-3.995.473-5.419 1.896-.059.059-2.255 3.683-1.407 2.01a8.973 8.973 0 0 0-.933 2.083c-1.092 2.007-.471 4.479 1.167 5.78.996 1.536 1.583 3.221 2.414 4.854 1.335 3.554 6.191 2.802 7.478-.466.069-.175.119-.35.177-.523 2.343.762 4.386.739 7.49-.823 5.447-2.741 11.396-4.432 17.373-5.618 6.739-1.337 19.025-2.803 25.264-8.477 5.065-.621 10.209-.713 15.105-2.369 7.956-2.69 16.111-3.573 24.342-4.939 8.299-1.377 16.253-3.842 24.504-5.383 7.784-1.453 15.198-3.541 22.193-7.362 2.597-1.418 4.416-3.292 6.611-5.007 3.567.529 6.671-2.204 8.786-5.307.096-.086.207-.165.301-.251 2.836 1.443 6.909.056 9.196-2.479 4.935-5.469 3.871-13.866-1.597-18.345z" style="" fill="#ba3838" data-original="#ba3838" class=""></path><path d="M462.359 293.154c-8.28 2.353-16.392 4.788-24.384 7.993-8.132 3.262-15.638 8.444-24.548 5.15-2.731-1.009-5.001.292-6.216 2.339-2.62.16-5.24.31-7.854.508-14.742 1.111-29.487 2.083-44.157 3.985-28.758 3.728-56.055 15.2-85.166 16.084-3.809.115-5.603 3.163-5.415 6.063-14.828 4.365-29.714 8.718-44.614 12.774a236.812 236.812 0 0 0-9.118 2.696c.139-1.228-.093-2.394-.846-3.447-2.7-3.775-7.543-3.116-12.427-.947.056-.351.111-.707.178-1.078-.118.771.655-1.583.782-2.005.921-3.041-2.294-6.807-5.53-5.53-2.052.81-4.46.585-6.701 1.025a132.348 132.348 0 0 0-1.153-6.032c2.136-3.462 1.136-8.975-2.53-10.869-.644-2.713-1.271-5.424-1.813-8.141-2.11-10.581-5.799-20.956-8.841-31.304-2.444-8.316-5.907-22.786-12.985-31.556-2.436-6.689-5.532-13.104-7.631-19.916a1182.938 1182.938 0 0 0-7.237-22.754c-4.817-14.578-10.084-29.001-14.939-43.556-4.64-13.912-10.295-27.298-15.787-40.895-2.819-6.977-6.59-13.435-10.004-20.121-2.777-5.438-5.425-12.207-11.06-15.263-1.132-.613-2.376-.779-3.565-.612-.886-2.993-1.696-6.014-3.526-8.599-1.406-1.988-3.648-3.459-6.124-4.266a46.948 46.948 0 0 0-2.029-3.314c-5.612-8.278-16.873-10.768-24.337-3.023-2.802 2.906-4.704 7.151-6.481 10.707-1.284 2.569-4.742 7.071-6.763 10.373-2.246 3.67-3.798 7.734-5.682 11.595-1.266 2.595-2.576 5.186-4.076 7.656-.22.361-.587.832-.939 1.315-4.779 1.638-8.572 6.141-7.68 11.468a11.892 11.892 0 0 0-.655 6.096c.227 1.516.581 3.035 1.012 4.556-.257 1.629-.499 3.238-.499 4.745-.001 6.291 1.454 12.18 3.261 18.154.235.776.468 1.545.701 2.309-2.179 2.649-3.1 6.43-1.287 10.404 5.619 12.321 8.769 25.419 13.143 38.156 1.755 5.112 2.779 10.447 3.955 15.657.638 2.829 1.788 5.751 3.451 8.255a9.646 9.646 0 0 0 1.927 4.592c2.08 2.691 5.798 4.414 9.26 3.823 1.354 4.697 3.697 8.929 8.303 10.5l.691 1.583c.3 7.502 4.094 15.109 6.876 21.834 3.735 9.033 6.678 18.316 10.632 27.265 4.577 10.361 9.323 20.626 13.779 31.044 1.473 3.443 4.373 5.021 7.526 5.223-3.906 5.656-4.189 13.838-1.636 20.418-.246 4.07 1.561 7.81 4.621 11.584 3.611 4.457 6.98 9.198 13.18 9.59 2.828 8.259 5.422 16.575 7.691 25.025 1.679 6.252 3.693 12.407 5.756 18.54.968 2.876 1.928 5.752 2.876 8.635.509 1.548.941 3.211 1.512 4.762.661 2.81 1.476 5.541 2.664 8.044a8.977 8.977 0 0 0 1.711 2.456c1.549 2.425 4.12 3.805 6.872 4.207 1.015 2.376 2.591 4.83 4.181 6.775 1.92 2.351 3.969 3.438 6.307 4.396 1.454 1.727 3.122 3.742 5.548 4.955 2.772 1.385 5.469 1.604 8.11 3.245 2.942 1.829 6.11 3.217 9.409 4.276 3.006.965 5.391 2.389 8.34 3.513 3.828 1.457 7.358 1.128 11.347 1.262 3.29.111 6.518 1.045 9.864.889 3.09-.144 6.059-.679 9.132-.808 3.774-.158 6.762-2.194 10.095-3.169 3.979.326 7.375.063 11.596-1.655 3.022-1.23 6.404-3.037 9.741-3.918 4.225-1.115 8.208-2.622 11.285-5.922 2.064-2.213 4.566-5.786 3.308-8.912-.842-2.09-2.574-3.28-4.386-3.405-3.468-1.232-6.59-1.197-10.352-.799-2.134.226-4.424.455-6.506 1.004-1.082.247-2.114.64-3.095 1.179-1.644.427-1.887.691-.725.792-1.556.455-3.577.682-5.217.839-.937 1.06-1.596 1.221-1.978.48a18.174 18.174 0 0 0-4.609-.862c-4.327-.218-8.127 1.768-12.425 1.891-3.377.098-6.263.989-9.56.635-2.863-.307-6.422.025-9.204-.452.711.052-2.64-1.223-2.832-1.317-3.942-1.927-8.22-2.534-11.967-4.804-2.993-1.813-6.001-2.721-9.068-3.642-.917-1.021-1.996-2.18-2.848-2.785-.051-.037-.103-.064-.156-.1-3.483-6.998-5.925-14.478-4.862-22.302 1.557-11.473 4.986-22.303 9.333-32.938 4.428-2.471 9.071-4.704 13.575-6.902 2.484-1.212 4.612-2.847 7.006-4.17 3.094-1.709 6.687-2.591 9.964-3.898 3.487-1.39 6.718-3.323 9.861-5.397 4.13-.831 8.255-1.692 12.366-2.566 16.965-3.611 33.858-7.963 50.572-12.579 16.412-4.531 33.076-7.674 49.811-10.724 7.764-1.415 16.465-2.47 23.872-5.182 4.094-1.499 7.956-3.179 12.2-4.269 3.854-.99 7.689-1.742 10.992-4.027.203-.14.385-.292.552-.453 14.31-1.413 28.556-2.904 42.463-6.41 4.037.839 8.208.927 12.195-.03 8.454-2.03 16.478-5.768 24.999-7.761 8.597-2.011 17.064-4.092 25.705-5.944 5.916-1.268 15.993-2.935 16.998-10.359 1.969-14.593-31.181-5.301-37.062-3.63zM466.355 401.718c-5.397-.851-11.237 2.621-16.235 4.414-2.612.937-4.699 2.124-7.142 3.315-2.731 1.331-5.988 1.699-8.95 2.521a413.768 413.768 0 0 1-43.413 9.605c-7.11 1.176-14.172 2.629-21.249 3.983-7.54 1.442-14.605 4.139-22.033 5.85-6.006 1.383-11.414 3.43-17.307 5.181-7.129 2.118-13.35 6.238-20.446 8.435-2.939.909-3.288 5.58 0 6.313 13.411 2.992 25.425-5.695 38.368-7.455 7.299-.991 14.246-4.196 21.49-5.698 7.77-1.61 15.571-3.169 23.39-4.53 15.034-2.618 29.767-5.774 44.105-11.153 2.851-1.07 6.095-1.854 8.81-3.22 2.49-1.252 4.455-3.237 6.964-4.542 5.894-3.066 11.634-3.522 14.94-9.85.577-1.104.161-2.939-1.292-3.169z" style="" fill="#821e1e" data-original="#821e1e"></path><path d="M358.604 134.529c-.877-2.59-1.856-4.996-3.885-7.59-2.014-2.574-3.904-5.264-5.881-7.869-.931-5.197-4.641-10.239-8.561-13.825a11.967 11.967 0 0 0-.389-.897c-.97-1.994-2.273-3.671-3.158-5.675-.84-1.901-1.344-3.653-2.63-5.333-2.248-2.94-4.362-5.465-5.758-9.015-1.277-3.246-1.856-7.004-3.787-9.989-2.155-3.328-5.745-5.408-9.798-4.115-.472.151-.9.339-1.302.549-1.399-.461-2.923-.493-4.449-.03-.128-.065-.361-.168-.743-.348-1.007-.476-2.88-.339-3.97-.313-3.029.073-5.909 1.044-8.873 1.512-5.547.876-10.795 1.555-16.258 2.959-10.757 2.765-21.942 3.938-32.67 7.09-5.082 1.493-10.241.981-15.209 2.997-4.579 1.858-9.049 3.77-14.077 3.653-4.75-.111-8.816-1.264-13.308 1.077-3.482 1.813-6.015 4.001-7.657 7.235-.567-.097-1.119-.222-1.62-.453-1.444-.663-2.772-2.039-4.167-2.99-5.717-3.904-12.312 3.626-9.149 9.149 1.705 2.978 1.576 6.662 2.632 9.888.959 2.928 2.134 5.833 3.174 8.738 1.281 3.577 2.589 7.204 4.354 10.576 1.419 2.712 3.521 4.957 4.881 7.692 1.615 3.25 3.047 6.499 4.709 9.617.097.611.209 1.218.357 1.812.915 3.684 1.944 6.243 2.171 10.072.227 3.817 1.106 6.978 2.716 10.45 1.781 3.84 6.841 4.274 10.171 2.666 2.877-1.387 5.754-2.584 8.671-3.71a4.836 4.836 0 0 0 2.098.779c5.599.731 9.897 1.032 15.59.396 5.512-.616 10.725-1.566 16.142-2.719 10.688-2.274 21.306-4.927 32.018-7.131 5.305-1.092 10.563-2.765 15.898-3.611 4.852-.77 9.288-1.492 13.934-3.242 4.546-1.712 9.221-3.5 13.056-6.187 3.695-.724 6.684-1.01 10.74-.849 1.909.076 3.796.174 5.683-.237.555-.011 1.076-.155 1.58-.365 7.904 1.51 11.735-8.002 6.724-12.414zm-156.685-22.216c-.076-.166-.147-.335-.225-.502l-.497-1.058c.342.019.686.036 1.038.043a10.933 10.933 0 0 0-.316 1.517zm29.077 17.876c-.246.397-.448.799-.632 1.201a8.71 8.71 0 0 1-.497-1.524 9.194 9.194 0 0 1-.179-1.557c.298-.007.597-.014.893-.018.59-.007 1.174-.024 1.761-.037-.475.619-.928 1.26-1.346 1.935z" style="" fill="#eaa9a9" data-original="#eaa9a9" class=""></path><path d="M363.859 29.359a15.572 15.572 0 0 0-.779-1.819c-1.551-5.271-4.772-10.721-5.918-14.687-.623-2.125-1.834-3.547-3.298-4.376-1.607-3.405-5.435-5.883-9.313-4.552-3.306 1.135-6.096 3.636-9.456 4.502-2.706.697-4.023-.726-6.74-1.494-3.115-.881-7.205.764-8.553 3.846-2.456.815-4.516 3.258-3.692 6.195 1.039 3.699 3.504 5.113 5.674 7.969 2.672 3.52 4.123 7.559 7.188 10.92 1.684 1.845 4.918 2.779 7.305 1.931.227-.081.434-.177.648-.267 1.4.983 2.763 1.818 3.98 2.42 2.248 1.114 5.148 1.18 7.644.327 1.913 1.342 3.847 2.357 6.107 2.272.474.596.963 1.182 1.48 1.745 1.276 1.39 4.07 1.53 5.32 0 3.851-4.723 4.468-8.987 2.403-14.932zm-36.76.756c1.522 1.809-.278 2.414 0 0zM491.956 286.941c-1.13-1.695-3.061-3.243-5.22-3.268-.244-6.436-3.491-13.357-6.133-18.789-1.519-3.125-4.892-4.231-8-3.679-1.525-.869-3.476-1.057-5.492-.015-7.652 3.954-10.762 17.014-14.284 24.008-2.666 5.293-6.507 8.566-5.536 15.001.439 2.91 1.241 5.293 1.45 8.224.209 2.935 1.279 5.346 3.447 7.335 2.3 2.109 5.574 2.612 8.331 1.075 2.301-1.283 3.659-3.235 5.065-5.208 3.808 1.298 9.24.184 11.018-3.9.193-.441.398-.881.611-1.319a8.906 8.906 0 0 0 5.884-1.228c1.164-.71 2.229-1.656 3.286-2.507l.093-.075c.371-.278.738-.56 1.084-.864 3.738-3.287 7.608-9.978 4.396-14.791zM132.673 163.091c-1.722-4.476-4.186-8.943-8.287-11.672-.764-.509-4.542-2.517-4.268-1.839-1.281-1.494-2.143-3.249-4.016-4.42-4.112-2.572-9.372-2.467-13.441.114-1.96 1.243-3.122 2.62-5.211 3.491-2.559 1.067-5.308 1.34-7.828 2.708-4.14 2.248-8.294 4.996-12.315 7.459-3.628 2.223-5.859 5.499-8.549 8.683-.882 1.044-1.806 2.124-2.734 3.233-2.691-.401-5.493.373-7.672 2.473-3.117 3.004-4.079 7.487-4.367 11.799-1.882.838-3.541 2.274-4.663 4.321-1.837 3.347-1.933 7.974-1.574 12.372a6.419 6.419 0 0 0-.521 1.347c-.512 2.052-.624 4.089-.487 6.117a3.09 3.09 0 0 0-.055.637l-.012-.007c-.606 5.877.075 13.347 2.596 19.639-.703 2.857-1.32 5.75-1.818 8.705-1.161 6.888 8.706 10.038 10.756 3.357 1.008.404 2.081.623 3.167.593.676-.019 1.714-.125 2.362-.317 2.728-.808 5.729-3.204 6.205-6.205 1.046-6.592 2.607-13.693 5.164-20.316.068-.1.133-.202.202-.302 4.461-6.458 10.071-11.918 15.715-17.331 5.207-4.993 9.994-10.229 16.308-13.843 6.539-3.742 13.898-5.541 20.537-8.983 3.752-1.943 6.387-7.703 4.806-11.813z" style="" fill="#ffc60b" data-original="#ffc60b"></path><path d="M134.631 168.938c-.956-2.479-1.994-3.471-3.961-4.961-.874-.662-2.065-.951-3.295-.944.078-.319.146-.644.195-.983.628-4.385-1.281-9.839-2.381-14.102-1.489-5.773-8.559-8.66-13.676-5.647-3.705.665-6.878 1.922-10.261 4.316-4.014 2.841-8.407 4.751-12.52 7.415-7.967 5.159-17.05 11.614-22.452 19.441-3.052 4.421-5.702 8.993-8.435 13.592-2.473 4.161-5.981 7.595-8.093 12.019-2.235 4.68-2.927 9.556-3.199 14.496-.346 2.143-.49 4.281-.377 6.378-1.057 4.106-1.558 8.242-.535 12.591.572 2.43 2.092 4.211 4.01 5.333a5.756 5.756 0 0 0-.088 1.851c-.174.378-.336.762-.478 1.154-1.121 3.111.77 6.665 3.382 8.311 4.951 3.119 10.289.335 13.346-3.821-1.618 2.199-.479.682-.017.191a39.297 39.297 0 0 1 1.749-1.715c1.764-1.655 3.327-3.286 3.955-5.742 1.009-3.944-.901-7.393-4.088-9.021.08-.132.163-.267.24-.397a38.46 38.46 0 0 1 1.816-2.717 406.37 406.37 0 0 1 1.805-2.348c3.661-4.493 8.146-8.662 12.04-12.662 5.806-5.965 12.24-11.538 19.02-16.376 5.743-4.1 14.704-7.61 18.264-13.939.569-1.012.283-2.483-.8-3.049a22.21 22.21 0 0 0-4.13-1.65c1.122-1.082 2.265-2.11 3.397-2.962.029.366.086.726.171 1.079-.058 4.705 4.633 7.937 9.026 6.834 3.787-.951 7.039-4.704 7.039-8.617-.004-1.231-.249-2.257-.669-3.348zm-31.799.718c-5.526 4.488-11.506 9.147-16.301 14.644-2.776 2.033-5.397 4.232-7.804 6.41a93.535 93.535 0 0 1 2.568-4.088c4.137-6.155 11.005-11.257 17.476-15.412 2.845-1.827 5.859-3.201 8.71-4.925a53.97 53.97 0 0 0-4.649 3.371zM170.595 289.042c-.913-5.259-.415-10.646-1.494-15.98-1.218-6.02-9.215-9-14.233-5.79-7.496 4.795-14.879 11.131-21.213 17.358-6.148 6.045-10.325 12.3-15.203 19.297-2.295 3.292-3.484 7.004-5.573 10.372-2.123 3.426-4.32 6.58-5.954 10.291-1.901 4.314-3.582 8.794-4.9 13.321-.334 1.147-.606 2.337-.864 3.539-1.386 1.539-2.249 3.547-2.212 5.692.029 1.659.02 3.213-.157 4.864-.241 2.248.509 4.139 1.809 5.569.001.049.007.096.007.145.218 6.082 5.488 8.818 10.126 8.171 1.467.882 3.283 1.059 4.913.083 4.717-2.828 8.809-8.538 12.167-12.848 2.467-3.167 3.778-6.827 5.957-10.153 1.588-2.426 3.319-4.669 4.902-7.078 6.095-5.62 12.309-11.12 18.27-16.866 3.645-3.513 5.62-5.072 9.46-7.13 4.037-2.165 6.998-6.049 7.084-10.785.074-4.214-2.188-8.018-2.892-12.072z" style="" fill="#cc9809" data-original="#cc9809"></path><path d="M470.038 314.523c-1.833-5.022-9.852-2.275-12.957-.749-2.74 1.347-5.522 2.701-8.221 4.115-2.542 1.331-4.371 3.416-6.479 5.269-.176.026-.355.061-.529.084 1.366-1.667.524-3.963-1.446-4.681-3.132-1.142-6.109-.281-9.33-.412-4.095-.168-7.975.163-12.059.901-7.596 1.374-15.628 2.918-22.71 6.023-3.256 1.428-6.554 2.704-9.827 4.085-3.145 1.325-6.531 2.001-9.594 3.484-3.407 1.65-6.428 4.033-9.831 5.732-2.646 1.321-5.755 2.125-8.352 3.602-3.345.613-6.709 1.15-10.034 1.827-.164.033-.323.078-.487.113-4.661.342-9.316.588-13.944.742-22.507.745-44.218 6.928-66.312 10.379-10.789 1.686-21.565 4.067-32.325 6.013-8.875 1.605-15.94 5.43-23.69 9.749-4.837 2.695-9.464 5.094-13.411 9.089-3.534 3.577-6.688 7.59-9.831 11.525a12.1 12.1 0 0 0-1.642.499c-7.521-1.073-15.204 7.301-17.135 13.678-1.503 4.963-2.242 10.465-3.302 15.555-1.185 5.693-.283 10.725 3.382 15.313 6.386 7.997 18.97 16.124 29.094 17.956 4.881.883 13.213-.874 18.603-4.862 9.727.031 19.378.906 29.033-.958 11.235-2.168 21.25-6.154 31.812-10.393a234.727 234.727 0 0 0 6.539-2.761c1.157.276 2.298.53 3.471.692a6.363 6.363 0 0 0 2.238 1.509c7.69 3.113 17.799.427 24.8-3.54 3.559-2.017 8.119-3.582 11.146-6.326.851-.773 1.531-1.687 2.109-2.612 2.752-.345 5.513-.634 8.239-1.214 2.803-.597 5.242-1.78 7.661-2.974 5.988-.943 11.988-1.991 18.062-2.914 9.377-1.423 17.838-5.482 26.838-8.149 2.98-.883 7.375-1.894 9.631-4.089.59-.574 1.519-2.15 1.963-3.246 2.31-.945 4.672-1.732 7.167-2.154 5.619-.951 10.797-2.698 16.293-4.137 2.776-.726 5.607-1.151 8.403-1.784a44.81 44.81 0 0 0 4.403-1.113c.289-.043.531-.087.747-.13 3.002 1.69 6.431 1.873 9.451-.456 3.12-2.407 4.586-7.433 2.18-10.921-.819-1.188-.395-3.213-.598-4.844-.366-2.939-1.552-4.211-2.77-6.67-.672-1.356-.687-4.658-.3-7.631.661-5.062 1.563-10.182 3.122-15.049.848-2.646 1.555-5.67 2.429-8.559 1.16-.845 2.127-2.041 2.758-3.372a14.791 14.791 0 0 0 3.686-2.886c1.696-1.828 2.272-4.734 1.646-7.211.019-.008.04-.014.061-.021 3.63-1.505 12.157-5.618 10.149-11.116z" style="" fill="#e5e0ac" data-original="#e5e0ac"></path><path d="M412.575 360.065c-3.771-2.096-6.785.093-10.457 1.314-5.688 1.891-11.18 4.528-16.934 6.202-5.222 1.519-9.785 4.409-14.992 5.793-.225-.833-.959-1.589-1.888-1.637-7.092-.365-14.882-.85-21.931-.22-6.71.599-13.318 2.429-19.926 3.665-14.23 2.66-28.059 7.084-41.932 11.147-13.759 4.03-27.984 8.06-42.13 10.416-14.389 2.396-29.022 5.087-43.107 8.912-4.819 1.309-2.752 8.281 2.036 7.388 14.506-2.703 29.423-3.508 44.038-5.534 14.173-1.965 28.533-5.928 42.323-9.718 13.956-3.836 27.826-7.864 41.839-11.482 6.094-1.574 12.056-3.419 18.175-4.838-.72 3.066 1.873 7.169 6.079 6.495 5.928-.95 11.538-2.868 17.383-4.023 5.643-1.114 10.633-3.399 16.2-4.681 5.473-1.261 10.665-3.323 15.758-5.679 4.871-2.254 6.709-5.081 10.058-8.923 1.201-1.38 1.149-3.629-.592-4.597zM365.241 350.596c-1.026.234-2.048.477-3.071.722.276-1.595-.685-3.542-2.584-3.331-14.276 1.592-28.716.982-43.002 3.128-16.625 2.496-32.775 6.496-49.136 10.228-4.799 1.095-2.681 8.009 1.999 7.254 17.713-2.855 35.224-5.776 53.124-7.351a178.76 178.76 0 0 1 2.838-.221c-6.546 1.637-13.144 3.106-19.854 4.197-20.537 3.34-40.9 7.185-61.366 10.964-6.089 1.125-3.491 10.337 2.556 9.269 21.187-3.742 42.286-7.465 63.536-10.804 10.776-1.693 21.277-4.061 31.612-7.533 8.788-2.953 18.766-6.054 25.855-12.212 2.057-1.788-.166-4.843-2.507-4.31zM410.835 383.33c-6.28 1.5-12.663 3.179-18.922 4.923-9.357 2.606-19.001 4.071-28.161 7.333-5.336 1.901-10.713 3.673-16.085 5.468.285-.193.574-.383.876-.565 1.403-.852.837-3.119-.844-3.115-11.903.032-23.316 6.073-35.018 7.269-13.128 1.341-25.874 4.773-39.068 5.567-24.752 1.491-49.703 10.688-71.449 22.272-2.602 1.386-.808 5.469 1.985 4.71 12.035-3.267 24.271-6.429 36.431-9.195 6.413-1.459 12.831-2.914 19.317-4.018 6.437-1.097 12.78-.952 19.245-1.491 12.413-1.032 25.124-4.01 37.245-6.803 1.312-.302 2.601-.711 3.879-1.173 5.654-.465 11.272-1.153 16.911-2.43 10.838-2.454 21.721-4.764 32.469-7.582 10.576-2.771 21.439-4.257 32.033-7.044 5.994-1.577 13.258-3.257 14.182-10.3.354-2.684-2.807-4.356-5.026-3.826zM426.245 343.954c-1.102.628-2.282.817-3.409 1.387-1.178.596-2.386 1.157-3.559 1.759-2.289 1.174-4.536 2.48-6.801 3.708-4.013 2.174-.371 8.466 3.585 6.134 2.552-1.504 5.38-2.819 7.647-4.741 1.071-.908 2.197-1.901 3.022-3.044.763-1.059 1.092-2.405 1.562-3.629.454-1.185-1.066-2.133-2.047-1.574z" style="" fill="#bfb975" data-original="#bfb975"></path><path d="M308.046 483.705a15.604 15.604 0 0 0-1.069-2.105c.496-4.145-.29-8.498-1.549-12.775a6.963 6.963 0 0 0 .422-1.865c.275-3.569-1.365-7.184-2.581-10.46-1.652-4.448-3.157-9.062-5.39-13.257-.336-.632-.818-1.625-1.413-2.775-1.474-5.337-3.199-10.564-6.126-15.36 1.215-4.948-3.653-10.928-10.459-8.945-1.447.422-2.835 1.165-4.206 1.787-1.41.64-.278.284-1.406.382-2.796.243-5.523-.17-8.294.559-2.073.544-4.093 1.185-6.179 1.706-3.074.768-5.5 4.543-4.773 7.733a8.076 8.076 0 0 0-.567 2.633c-.073 1.449.405 2.726 1.012 4.005.273.578.76 1.111 1.325 1.564.597 2.719 1.524 5.46 2.212 7.947 1.28 4.622 4.347 9.83 4.647 14.618.017.857.177 1.62.439 2.299.185 3.58.733 7.13 2.597 10.076.253.401.546.737.854 1.043-.121 1.268-.252 2.557-.288 3.953a5.978 5.978 0 0 0 .711 2.802c-.667 2.224-1.985 4.206-2.813 6.406-1.898 5.052-5.723 22.128 5.744 17.921 1.746-.641 2.804-1.796 3.605-3.035 7.506 1.205 12.223-12.275 14.315-17.211.624-1.473 1.352-3.017 2.085-4.594.422.503.827 1.019 1.173 1.588 1.366 2.251 1.844 4.863 3.333 7.028.97 1.41 2.244 2.238 3.582 2.562.045.151.101.3.14.453.542 2.108.811 3.721 2.286 5.421.748.862 2.377 1.346 3.459.914 5.389-2.147 5.112-8.383 3.172-13.018z" style="" fill="#9e6226" data-original="#9e6226"></path><path d="M499.545 281.949c-2.954-3.251-4.258-7.755-5.944-11.744-2.223-5.261-4.9-10.283-7.462-15.381-4.891-9.733-11.177-18.552-16.34-28.116-5.385-9.974-11.166-19.694-16.657-29.606-5.216-9.415-8.407-19.64-14.257-28.703-2.865-4.438-5.664-8.702-7.474-13.687-1.955-5.39-4.023-9.852-7.579-14.389-6.779-8.645-8.639-19.353-14.177-28.661-2.814-4.73-3.91-9.135-5.826-14.192-1.864-4.921-5.082-9.182-7.779-13.659-2.532-4.205-3.852-8.343-5.402-12.944-1.41-4.183-4.168-7.688-5.277-11.964-2.981-11.507-10.196-21.148-14.072-32.405-.877-2.549-.977-5.267-2.005-7.768-.912-2.216-2.532-3.964-3.556-6.111-1.915-4.02-2.684-8.171-5.806-11.547-.82-.887-2.339-1.321-3.495-.924-3.54 1.213-7.546-.189-11.248.139-2.994.265-5.956.886-8.944 1.205-2.809.301-5.605.68-8.412.994-4.304.481-8.528-.357-12.838-.056-7.464.521-14.789 2.299-22.237 2.993-8.586.8-17.053 1.431-25.588 2.785-16.818 2.669-33.582 6.059-50.169 9.914-6.814 1.583-13.29 4.157-20.251 5.026-8.572 1.071-17.042 2.969-25.522 4.599-15.529 2.984-31.35 4.817-46.668 8.813-6.972 1.819-13.86 3.777-20.93 5.211-7.724 1.567-15.652 1.501-23.001 4.517-12.665 5.202-25.833 12.623-35.772 22.099-9.89 9.43-19.592 19.617-23.536 32.951-2.304 7.787-5.966 14.97-8.001 22.939-2.229 8.73-2.884 16.161-2.272 25.097.215 3.142-.053 6.242.073 9.367.058 1.457.272 2.841.93 4.155.675 1.348 1.13 2.092 1.485 3.362 1.202 4.306 3.003 8.124 5.717 11.363.019.08.032.165.052.245 1.462 5.645 3.383 9.689 6.177 14.776 4.808 8.754 9.316 18.966 8.523 28.998-.813 10.285-.184 19.799 9.802 25.263 3.961 2.167 7.049 5.2 11.24 7.156 2.279 1.064 5.235 2.066 6.991 3.986 2.024 2.213 2.6 5.885 3.241 8.728 2.726 12.107 5.279 23.575 10.574 34.862 2.236 4.767 4.025 9.705 6.181 14.505 2.583 5.751 6.129 10.91 9.026 16.489 1.561 3.005 3.841 6.205 3.343 9.461-.761 4.967-2.546 8.448-1.485 13.694 2.018 9.982 8.45 17.095 16.04 23.247 5.395 4.372 6.67 10.713 8.687 17.072 1.997 6.296 3.422 12.691 5.431 18.979 1.857 5.812 4.068 11.455 5.937 17.255 1.579 4.901 3.358 9.416 6.501 13.336.678 2.621 1.588 5.173 3.048 7.645 3.269 5.535 7.855 11.005 12.767 15.143 4.546 3.83 10.023 5.157 14.869 8.344 2.416 1.589 4.36 3.668 6.948 5.033 2.964 1.563 6.263 2.739 9.393 3.913 12.701 4.763 26.307 2.249 39.246-.132 6.379-1.174 12.919-2.462 19.1-4.461 3.378-1.094 6.617-2.578 10.004-3.647 2.964-.934 6.006-1.133 8.679-2.786a3.282 3.282 0 0 0 1.588-2.769c.445 5.529.1 11.275-.921 16.384-1.148 5.743-5.209 12.849-3.093 18.75 4.005 11.166 15.714.379 20.438-3.96 4.394-4.036 8.826-8.234 11.121-13.848 1.113-2.723 1.872-5.647 2.395-8.615 4.203 8.842 11.524 20.439 18.897 16.307 5.769-3.232 4.201-13.656 3.514-18.843a354.376 354.376 0 0 0-2.383-15.479c1.768-.339 3.596-.516 5.296-.972 4.222-1.133 8.265-2.969 12.471-4.195 8.956-2.609 18.044-4.8 27.028-7.323 17.574-4.933 34.793-10.551 52.498-15.052 18.353-4.666 36.94-8.892 55.071-14.347 6.571-1.977 14.114-4.171 18.769-9.565 3.942-4.565 8.156-11.959 7.176-18.153-.971-6.141-5.69-12.281-10.564-15.956-3.195-2.408-8.271-4.365-12.023-7.13a2.085 2.085 0 0 0-.515-1.142c-.175-.54-.459-1.039-.842-1.525-.21-.266-.315-.447-.707-1.057-.648-1.007-1.279-2.005-1.864-3.049-.228-.581-.556-1.123-1.041-1.749a56.402 56.402 0 0 0-.958-1.208c-.959-1.17-2.627-1.47-4.085-1.132.141-2.322.477-4.694 1.007-7.243 2.657-12.799 9.355-24.187 16.848-34.821 6.189-1.48 12.119-3.622 16.965-8.08 5.979-5.501 10.316-12.957 9.327-21.201.452-1.95.111-4.102-1.436-5.803zM318.884 13.973c7.064-.128 13.69-1.064 20.658-2.282 3.761-.657 7.279-2.087 11.073-2.562 1.91-.239 3.645-.515 5.345-1.041 1.347 3.041 1.468 6.836 2.676 9.832 1.91 4.736 1.763 9.511 3.313 14.397 1.097 3.46 2.486 6.802 3.936 10.113-5.764-1.063-11.577-1.374-17.301-2.975-5.92-1.657-10.652-4.907-15.966-7.834-5.331-2.937-10.508-5.123-13.709-10.634-1.319-2.274-2.345-4.591-3.51-6.807a47.34 47.34 0 0 1 3.485-.207zM116.856 372.711c-1.372-1.089-2.82-2.104-4.288-3.141-4.89-3.452-8.333-7.833-10.107-13.652-1.953-6.405 1.451-7.386 4.068-12.133 1.216-2.206 1.393-4.383 1.016-6.525 3.289-7.632 6.632-15.258 10.096-22.833 1.503-3.286 2.501-6.914 4.429-9.968 2.091-3.312 4.921-6.249 7.336-9.333 4.726-6.035 10.822-10.423 15.668-16.314.902-1.097.43-3.208-1.28-3.092-7.048.483-14.326 7.839-18.661 12.928-2.673 3.138-5.374 6.277-7.955 9.492-2.836 3.532-4.174 7.175-6.059 11.229-2.72 5.845-5.347 11.714-7.967 17.593-4.622-8.7-9.786-17.022-14.072-25.942-2.37-4.931-5.367-9.484-7.94-14.299-3.352-6.273-5.123-13.099-6.642-20.005-.611-2.776-1.161-5.698-2.073-8.464 1.02-.811 1.084-2.515.359-3.641.838-2.848 2.048-5.49 2.791-8.396.928-3.634 1.139-7.386 2.537-10.896 1.195-3.003 2.033-5.934 3.118-8.944 1.304-3.616 4.409-7.694 6.36-11.141 4.323-7.645 11.732-14.074 18.032-20.074 6.214-5.919 13.85-10.196 19.973-16.065 1.284-1.23.275-3.364-1.412-3.408-9.574-.252-18.159 7.22-24.954 13.08-7.207 6.215-16.141 12.652-20.93 21.036-1.402 2.454-2.401 4.806-4.018 7.16-1.264 1.84-2.392 3.497-3.075 5.663-1.065 3.377-2.068 6.548-3.314 9.884-1.713 4.586-1.689 9.494-2.789 14.197-.094.401-.172.782-.248 1.163-1.884-1.396-3.904-2.64-5.83-3.988-2.072-1.451-3.206-3.246-4.953-4.961-1.494-1.466-3.905-2.177-5.213-3.749-2.996-3.601-1.386-10.145-1.053-14.33.272-3.409.144-6.826-.855-9.984 2.121-3.607 3.464-7.682 5.612-11.769 4.996-9.5 10.957-19.319 17.327-27.972 5.839-7.93 16.452-13.352 25.275-17.343 4.402-1.991 12.848-4.568 11.958-10.671-.321-2.199-3.075-2.238-4.424-1.167-2.435 1.932-6.161 2.067-9.045 3.029-4.024 1.341-8.187 2.989-11.772 5.274-7.547 4.811-14.562 8.899-19.9 16.255-5.932 8.175-11.345 17.294-15.873 26.302-1.63 3.243-2.978 6.454-3.872 9.94-2.571-4.044-4.549-8.296-7.069-12.545-1.637-2.76-3.76-5.17-5.406-7.913-.288-.48-.538-.975-.793-1.469.499-1.159.456-2.582-.518-3.672-4.864-5.437-3.055-11.621-4.938-17.98-.341-1.153-.503-1.321-.573-1.136l-.039-.703c-.051-.852.169-1.832.195-2.678.114-3.636-.358-7.286-.466-10.917-.416-13.993 6.798-26.11 10.536-39.117 3.588-12.485 14.574-23.125 24.312-31.339 5.081-4.287 11.133-6.999 16.871-10.266 1.318-.75 2.603-1.475 3.885-2.174.247 7.342 5.151 15.498 8.209 21.615 2.2 4.402 4.951 8.398 7.376 12.667 2.657 4.675 4.235 9.893 6.47 14.776 4.608 10.066 11.431 18.88 16.507 28.689 2.244 4.338 3.824 8.761 6.672 12.764 3.301 4.637 6.209 8.528 7.955 14.063 7.262 23.02 13.908 46.375 20.335 69.65 3.216 11.645 6.746 23.197 10.155 34.785 3.13 10.638 5.562 21.737 9.378 32.146.695 1.896 1.564 3.672 2.505 5.405-8.841 1.661-15.395 3.61-22.052 10.538-6.689 6.962-12.413 14.553-17.469 22.767-2.715 4.41-5.099 9.058-7.899 13.402-2.187 3.391-4.725 6.455-6.385 10.168-1.365 3.034-2.396 5.643-3.135 8.449zm142.713 96.325c-4.56-2.916-10.111-.626-14.797 1.033-5.872 2.078-11.683 3.76-17.836 4.814-12.125 2.077-26.688 4.723-38.725 1.289-5.699-1.626-10.46-3.949-15.23-7.368-4.665-3.343-10.45-4.341-14.983-7.928-4.359-3.451-9.121-7.759-12.596-12.339 2.843-1.693 4.533-5.14 2.139-8.416-3.052-4.175-4.139-9.152-5.88-13.942-1.902-5.234-3.923-10.38-5.793-15.631-1.988-5.583-3.023-11.477-5.284-16.959-2.217-5.374-5.307-10.612-8.527-15.445-.125-.187-.263-.357-.392-.537 1.563-3.518 2.937-7.174 4.762-10.633 2.021-3.831 4.912-7.092 7.137-10.793 2.188-3.641 4.207-7.365 6.46-10.976 4.989-7.996 10.538-15.141 16.963-22.033 5.312-5.699 12.232-8.62 18.083-13.508 1.386 2.387 2.84 4.74 4.104 7.244 2.739 5.429 4.377 11.306 6.939 16.814 2.495 5.362 5.259 10.776 8.189 15.91 2.509 4.396 6.178 6.996 9.3 10.731 2.622 3.137 6.624-.386 6.132-3.57-.544-3.523-3.019-6.177-4.867-9.108-2.873-4.559-5.279-9.392-7.801-14.153-4.761-8.988-7.458-18.769-12.953-27.397-5.891-9.253-7.628-20.818-11.03-31.146-3.552-10.789-7.417-21.476-11.085-32.227-7.765-22.755-15.624-45.638-22.079-68.806-1.311-4.705-2.291-9.511-4.109-14.06-1.746-4.367-4.502-7.789-7.201-11.571-5.681-7.961-9.271-17.795-14.239-26.295-3.35-5.733-6.599-11.481-9.058-17.662-1.966-4.942-3.78-9.806-6.618-14.327-3.067-4.888-5.914-9.698-8.567-14.833-1.324-2.564-2.526-5.253-3.959-7.757-1.573-2.75-4.213-5.034-5.075-8.129 4.004-1.985 8.08-3.483 12.873-3.876 14.386-1.179 28.047-6.388 42.099-9.253 14.573-2.971 29.4-4.741 44.041-7.363 6.832-1.223 13.61-2.354 20.493-3.218 7.509-.943 14.645-3.886 22.029-5.51 15.173-3.338 30.366-6.454 45.68-9.076 8.862-1.517 17.684-2.339 26.581-3.485 5.324-.686 10.692-1.977 16.065-2.807 1.17 4.285 1.705 8.8 4.357 12.556 3.614 5.119 9.437 7.597 14.647 10.695 11.292 6.713 23.903 12.846 37.539 10.755a2.54 2.54 0 0 0 1.008-.377c1.97 4.504 3.806 9.044 4.93 13.835.964 4.114 3.314 7.363 4.804 11.232 1.758 4.568 2.611 9.22 4.87 13.648 2.248 4.404 5.305 8.387 7.448 12.838 2.373 4.932 2.81 10.329 5.53 15.221 2.652 4.767 4.944 9.201 6.806 14.347 1.881 5.202 3.957 10.461 7.077 15.061 3.197 4.715 6.288 8.353 8.193 13.822 1.706 4.904 3.904 9.364 6.672 13.757 2.785 4.42 5.746 8.691 7.727 13.552 2.183 5.353 4.307 10.637 7.001 15.769 5.278 10.054 11.278 19.702 16.548 29.765 4.187 7.993 9.074 15.536 13.558 23.335-.264.15-.525.306-.779.486-2.569 1.832-4.464 4.78-6.68 7.017-2.164 2.185-4.389 4.37-6.184 6.88-2.093 2.929-2.706 5.893-4.118 9.114-1.072 2.444-3.145 4.243-4.287 6.677-1.336 2.849-2.067 6.165-2.753 9.208-1.046 4.637-2.836 11.091-1.43 16.003-1.955.623-3.911 1.247-5.894 1.787-4.894 1.334-9.624 1.409-14.619 1.797-9.571.745-19.232 3.749-28.254 6.863-9.286 3.205-18.491 4.554-27.959 6.88-4.571 1.123-9.053 2.577-13.47 4.202-2.361.869-4.7 2.001-7.124 2.682-2.808.789-5.739.782-8.585 1.392-4.071.873-7.671 3.166-11.641 4.413a125.359 125.359 0 0 1-13.95 3.491c-9.449 1.809-19.191 3.182-28.712 4.644-5.114.786-10.21 1.172-15.259 2.387-5.143 1.237-10.123 3.051-15.258 4.341-3.998 1.004-7.884 1.85-11.658 3.294-1.421-.102-2.847-.134-4.288.061-9.502 1.283-19.305 6.006-28.277 9.314-15.734 5.802-32.573 14.024-41.845 28.872-4.329 6.932-4.855 14.962-5.056 22.896-.221 8.685-.152 16.264 3.84 24.187 6.787 13.464 25.11 17.715 38.984 17.527.855-.012 1.538-.292 2.062-.723 3.899.193 7.815.323 11.582.07 7.083-.477 13.893-2.536 20.72-4.333 3.797-1 7.617-1.939 11.524-2.392 2.578-.298 4.293-.409 5.699-2.153 1.296 3.868 2.588 7.736 3.664 11.66.708 2.587 1.164 5.365 1.426 8.204a3.39 3.39 0 0 0-1.521-2.257zm46.983 21.208c-.139-.099-.524-.188-1.078-.563-1.78-1.207-3.338-3.025-4.673-4.698-3.526-4.419-6.262-8.845-9.068-13.724-1.295-2.251-4.187-.598-3.88 1.636 1.695 12.315-9.592 19.895-18.43 26.126-.657.464-1.67 1.001-2.649 1.573.188-1.05.34-2.131.443-2.543 1.455-5.783 2.294-11.217 2.425-17.176.134-6.032.042-12.069-1.523-17.935-1.711-6.414-4.593-12.478-6.649-18.786-1.739-5.337-3.58-11.624-6.923-16.214-.341-.47-.713-.909-1.1-1.335a42.75 42.75 0 0 0 7.216-2.377c5.121-2.202 10.242-3.528 15.5-4.837.074-.009.146-.023.22-.032 3.382-.43 6.753-.9 10.122-1.393 1.091 1.341 1.499 4.303 2.215 5.846 3.293 7.094 7.191 13.76 10.014 21.1 1.367 3.556 2.278 7.148 3.006 10.785a23.656 23.656 0 0 0-2.808 1.941c-4.224 3.381.114 8.892 4.57 8.221l.027.168c1.07 6.42 3.13 12.712 3.264 19.268.017.793.175 3.712-.241 4.949zm158.733-103.579c.185-2.719-1.174-5.522-4.591-6.584.544.169-.71-1.455-1.11-2.552-.692-1.892-1.04-3.922-1.522-5.872-.149-.599-.266-1.178-.388-1.759.209.206.412.418.634.611 1.133.987 2.599 1.934 4.082 2.212 1.751 2.684 4.211 4.984 6.743 7.015 2.366 1.896 5.159 3.521 7.021 5.973 3.386 4.46 3.723 8.516.806 13.119-2.457 3.876-4.237 5.971-8.483 7.875-4.835 2.168-9.876 3.974-14.908 5.624-10.818 3.547-21.827 6.549-32.874 9.291-10.683 2.652-21.381 5.324-32.034 8.089-10.489 2.723-20.626 6.675-31.055 9.625-10.753 3.041-21.668 5.599-32.37 8.804-4.971 1.488-9.693 3.589-14.802 4.555-.433.082-.845.17-1.258.259-.151-.672-.283-1.36-.441-2.026-.897-3.787-2.169-7.51-3.657-11.166 1.828-.282 3.77-.506 4.251-.622 2.898-.695 5.875.168 8.623-.59 6.049-1.669 12.1-3.356 18.334-4.734 15.474-3.418 30.913-7.129 45.985-12.056 14.813-4.843 29.255-11.212 44.213-15.518 11.789-3.393 23.405-7.08 34.415-12.205 1.48.199 3.016-.372 3.915-2.038l.48-.889c.879-1.617.742-3.213-.009-4.441zm-19.548-29.666c-1.33 7.311-.296 14.38 1.062 21.604.629 3.344 1.733 6.79 3.696 9.486-2.177 1.062-4.376 2.123-6.804 2.87-6.946 2.133-13.869 4.329-20.832 6.405-15.265 4.551-30.025 11.04-45.173 16.023-14.712 4.839-29.765 8.577-44.852 12.032-3.723.852-7.475 1.587-11.191 2.469-1.279.303-2.795.483-3.987 1.057-.579.279-1.755 1.421-2.26 1.595-2.109.726-4.218.267-6.436 1.306-2.034.952-3.973 2.095-5.929 3.198-1.942-4.239-4.087-8.388-6.205-12.424-.876-1.668-1.577-3.802-2.412-5.878 1.053-.168 2.108-.32 3.161-.492 28.766-4.711 57.231-10.538 85.147-18.99 1.751-.53 1.423-3.155-.432-3.193-6.375-.128-12.611 1.812-18.745 3.34-6.701 1.67-13.472 2.933-20.15 4.716-14.372 3.837-29.053 6.117-43.712 8.587-2.609.44-5.216.858-7.823 1.272-1.189-1.507-2.712-2.596-4.838-2.822-3.182-.338-6.455 1.224-9.485 1.95-4.78 1.145-9.534 2.004-14.172 3.704-3.251 1.192-6.374 2.791-9.663 3.881a1102.6 1102.6 0 0 1-6.895 1.34c-.782.077-1.529.153-2.246.282-.711-.384-1.419-.764-2.115-1.142-1.135-.617-2.375.88-1.406 1.824.055.053.112.106.169.158-1.353.282-2.703.567-4.05.882-3.701.867-7.443 1.664-11.124 2.602-3.425.873-6.644 2.747-10.167 3.176-1.44.175-1.537 2.33 0 2.322 5.971-.032 12.181-1.536 18.046-2.627 1.58-.294 3.158-.594 4.737-.892.699 2.005 2.917 3.498 4.993 1.953 1.06-.789 2.376-1.1 3.756-1.261.351.464.685.937.971 1.437 2.098 3.659 3.155 8.286 4.314 12.301.316 1.096.65 2.186.991 3.275a3.326 3.326 0 0 0-1.362-.171c-11.604 1.136-22.301 6.313-33.833 7.488-5.361.546-10.765-.012-16.13.471-.667.059-1.524.216-2.473.401-5.135-1.845-10.256-3.859-15.263-5.901-5.02-2.047-8.107-5.148-10.333-10.085-2.937-6.518-2.102-13.967-1.945-20.944.164-7.33 2.041-13.159 7.161-18.469 4.766-4.94 9.667-9.864 15.581-13.43 6.821-4.114 14.629-6.731 22.026-9.603 6.903-2.681 13.724-5.809 20.717-8.223 3.292-1.136 6.782-1.435 10.053-2.545.805-.273 1.58-.675 2.344-1.127 2.537-.399 5.076-.783 7.587-1.31 4.434-.932 8.71-2.46 13.168-3.309 5.118-.976 10.319-1.088 15.464-1.851 9.908-1.47 20.001-2.465 29.833-4.344 9.471-1.809 18.44-6.01 27.928-6.902 10.198-.957 19.788-5.87 30.066-7.14 10.431-1.289 19.842-3.848 29.968-6.59 4.749-1.286 9.628-2.179 14.478-2.994 4.841-.814 9.733-.366 14.605-1.012 10.04-1.33 19.65-5.2 29.575-7.274.988-.207 1.983-.403 2.98-.597-10.701 10.138-17.405 23.134-20.134 38.135zm40.983-63.679c-2.36 3.178-4.722 6.337-8.461 7.984-8.288 3.648-18.44 4.222-27.231 6.395.654-3.831.229-8.18.934-11.816.528-2.726 1.006-5.856 2.173-8.403.99-2.161 2.688-3.859 3.639-6.053 1.127-2.6 1.358-5.43 2.734-7.953 1.511-2.769 3.774-4.956 5.782-7.345 1.856-2.207 3.207-4.74 4.988-6.972.187-.234.389-.458.593-.678.808 1.48 1.6 2.972 2.36 4.483 4.644 9.244 7.557 20.276 15.4 27.213-1.032 1-2.063 2.003-2.911 3.145z" fill="#000000" opacity="1" data-original="#000000" class=""></path><path d="M213.505 178.726c3.103-.842 5.543-.819 8.698-.994 2.678-.149 5.257-1.224 7.905-1.602 3.44-.491 6.939-.162 10.4-.607 14.353-1.852 28.672-4.436 42.937-6.869 13.996-2.387 27.857-5.379 41.555-9.116 7.006-1.911 14.022-3.546 21.166-4.851 3.624-.662 7.247-1.611 10.939-1.719 3.45-.101 6.58.264 10.025-.245 1.325-.195 2.398-1.552 2.75-2.75 1.835-6.248-2.754-12.119-6.096-16.951-5.071-7.336-7.125-16.054-11.138-23.954-4.251-8.369-11.414-15.147-16.061-23.381-3.578-6.341-5.731-15.756-11.499-20.478-1.279-1.047-2.871-1.406-4.376-.565-2.318 1.297-5.246.077-7.672.023-2.228-.05-4.466.351-6.665.666-5.541.792-10.827 2.31-16.253 3.62-11.326 2.734-22.965 3.615-34.399 5.746-23.744 4.427-46.779 14.175-70.92 15.636-.656.039-1.115.333-1.391.731-.374-.795-1.097-1.442-2.175-1.568-1.932-.226-2.181-.156-4.077.258-1.05.228-1.995 1.43-1.919 2.52.244 3.477 1.422 6.092 2.911 9.219 2.003 4.203 2.246 8.482 3.84 12.764 1.151 3.091 3.09 5.302 3.735 8.623.632 3.25 1.037 6.677 2.188 9.798 1.075 2.91 3.024 5.143 4.637 7.74 2.439 3.929 3.236 8.515 4.969 12.756 1.385 3.388 3.422 6.493 4.71 9.915 1.613 4.287 1.796 9.036 2.834 13.473.246 1.052 1.195 1.982 2.238 2.238 2.239.55 3.963.532 6.204-.076zm-8.244-24.62c-1.789-3.771-2.816-7.786-4.43-11.621-1.505-3.576-3.841-6.14-5.908-9.333-3.478-5.373-2.861-12.295-5.986-17.828-2.062-3.651-2.607-6.525-3.72-10.456-.995-3.514-3.267-6.676-4.272-10.16l.29-.011c1.264.138 2.038-.522 2.337-1.415.283.308.692.53 1.229.579 5.442.499 10.64 1.07 16.072.214 6.426-1.014 12.815-2.395 19.224-3.523 13.051-2.298 25.869-5.748 38.947-7.885 12.198-1.994 24.542-3.119 36.529-6.242 5.589-1.456 11.666-3.387 17.466-3.566 3.465-.107 6.205.272 8.957-.75 1.637 2.123 2.725 5.74 3.749 7.671 1.809 3.411 3.149 7.069 5.108 10.4 4.127 7.021 9.667 13.092 13.876 19.978 4.304 7.041 5.807 15.413 9.676 22.653 1.698 3.178 6.867 8.245 7.866 12.509-2.414.014-4.845-.271-7.256-.055-2.958.266-5.846.956-8.755 1.519-6.773 1.312-13.483 2.664-20.146 4.48-13.322 3.63-26.663 6.902-40.252 9.392-13.337 2.444-26.74 4.583-40.13 6.71-6.575 1.045-13.451.581-19.882 2.225-3.092.79-5.812.654-8.914 1.021-1.98.234-4.068 1.589-6.129 1.97-.529-3.162-.815-6.386-1.674-9.462-.889-3.18-2.464-6.048-3.872-9.014zM363.799 380.303c-2.813 1.297-5.896 1.335-8.886 1.945-3.008.613-5.954 1.503-8.962 2.122-6.413 1.322-12.768 2.013-19.059 3.919-6.088 1.845-12.381 2.463-18.599 3.701-6.947 1.384-13.795 2.967-20.821 3.955-6.038.848-11.394 2.789-17.276 4.228-5.966 1.46-12.123 1.994-18.157 3.091-13.199 2.399-26.929 3.894-39.867 7.432-.581.159-.334 1.01.247.895 13.245-2.62 27.046-3.42 40.439-5.356 6.687-.966 13.515-1.431 20.059-3.202 6.351-1.719 12.313-3.119 18.864-4.051 13.453-1.914 26.952-4.805 40.062-8.268 6.266-1.656 12.792-2.15 19.103-3.654 4.618-1.1 10.821-1.41 14.428-4.716 1.159-1.06-.312-2.623-1.575-2.041zM413.999 350.134c.907-.879-.294-2.531-1.379-1.787-2.606 1.787-7.843 2.445-10.834 3.476-3.294 1.135-6.637 2.12-9.997 3.03a377.384 377.384 0 0 1-22.404 5.346c-7.776 1.606-15.329 3.654-23.165 5.084-8.597 1.569-17.129 3.476-25.705 5.147-16.906 3.294-33.888 6.214-50.698 9.988-8.187 1.839-16.311 4.025-24.565 5.546-6.607 1.216-14.491.851-20.546 3.829-1.539.757-.193 2.99 1.336 2.286 3.802-1.751 9.934-1.734 14.039-2.237 3.526-.432 7.028-.943 10.522-1.599 8.297-1.558 16.481-3.701 24.745-5.424 17.237-3.595 34.623-6.403 51.905-9.766 8.162-1.588 16.296-3.336 24.511-4.638 7.736-1.227 15.174-3.446 22.855-4.968 7.486-1.482 14.981-3.579 22.292-5.77 5.306-1.591 12.983-3.565 17.088-7.543zM319.616 362.427c16.193-4.693 32.559-8.309 48.948-12.187 7.846-1.857 15.644-3.815 23.597-5.181 8.621-1.481 17.432-1.633 26.011-3.244.791-.149.806-1.475 0-1.612-15.662-2.65-33.269 2.725-48.355 6.482-17.047 4.246-34.052 8.169-50.867 13.323-1.538.472-.891 2.869.666 2.419zM441.232 365.13c-3.475 1.961-9.535 1.768-13.495 2.602-5.202 1.096-10.369 2.408-15.562 3.556-10.253 2.265-20.608 4.869-31.077 5.973-2.261.239-2.297 3.804 0 3.576 11.237-1.116 22.18-3.867 33.21-6.136 5.877-1.209 11.671-2.696 17.497-4.124 3.424-.839 8.169-1.133 10.61-3.915.711-.813-.184-2.097-1.183-1.532zM210.634 386.216c12.332-5.799 26.831-7.412 39.798-11.619 5.85-1.898 11.734-3.481 17.792-4.56 6.045-1.078 11.603-3.9 17.775-4.347.944-.068 1.315-1.61.241-1.778-5.378-.843-10.191 1.255-15.369 2.418-6.854 1.537-13.616 2.7-20.348 4.817-13.516 4.249-28.573 6.419-41.318 12.626-1.646.798-.207 3.212 1.429 2.443zM190.907 411.895c2.852-.477 5.617-1.934 8.417-2.681 2.729-.728 5.528-1.262 8.196-2.211 2.798-.995 5.342-2.712 8.343-3.088 1.1-.138 1.619-1.892.29-2.143-4.434-.836-8.728 2.027-12.829 3.348-6.493 2.091-12.706 5.266-19.557 5.585-.574.027-.56.831 0 .882 2.4.221 4.741.71 7.14.308zM228.939 420.66c-6.983.073-13.793 2.222-20.489 4.007-7.508 2.002-15.205 3.198-22.652 5.434-1.598.48-.927 2.959.692 2.507 13.994-3.903 28.576-6.443 42.764-9.622 1.311-.295 1.01-2.34-.315-2.326zM211.589 442.61c5.345-1.643 10.969-3.13 16.501-3.953 3.135-.466 6.487-.439 8.719-2.999.735-.842-.222-2.342-1.266-1.64-2.765 1.856-6.757.976-9.908 1.522-5.026.871-10.122 2.127-15.009 3.578-2.23.662-1.272 4.179.963 3.492zM39.551 136.399c-.428-2.442-3.882-1.652-4.031.559l-.051-.007c-.267 2.223-1.583 4.579-2.23 6.735-.824 2.747-1.513 5.528-2.41 8.253-1.321 4.02-3.257 8.287-.339 11.873.536.659 1.682.559 2.232 0 3.263-3.311 4.206-10.079 5.132-14.536.848-4.072 2.423-8.733 1.697-12.877zM43.727 144.801c-2.222 4.358-4.423 8.672-6.579 13.058-1.468 2.988-4.521 7.226-2.129 10.379.531.7 1.302.978 2.129.559 3.016-1.535 4.694-6.779 5.933-9.795 1.689-4.117 3.46-8.177 5.188-12.284 1.088-2.592-3.273-4.406-4.542-1.917zM46.887 157.768c-1.11 1.192-.201 3.157 1.14 3.343-.121.384-.259.764-.399 1.14a48.792 48.792 0 0 1-1.054 2.571c-.902 2.048-2.616 5.317-.546 7.23.669.618 1.832.562 2.298-.296 1.613-2.973 3.136-5.972 4.05-9.251.384-1.375.793-3.062-.025-4.36-1.346-2.136-3.884-2.074-5.464-.377zM94.369 242.344c-.069-2.821-3.949-2.663-4.272 0-1.025 8.437-7.515 16.995-4.902 25.594.716 2.354 3.766 2.134 4.567 0 1.582-4.212 2.142-8.797 3.172-13.175.975-4.15 1.54-8.143 1.435-12.419zM100.947 266.185c.748-2.13.901-4.419 1.645-6.548.688-1.969 1.543-3.469 1.904-5.54.152-.867-.084-1.954-.968-2.38l-.789-.38c-1.781-.858-3.812 1.157-2.692 2.751-.805 2.014-2.096 3.759-2.914 5.792-1.067 2.651-1.98 5.137-3.352 7.652-1.841 3.374-3.061 6.701-.927 10.228a2.299 2.299 0 0 0 3.566.46l.398-.385c.504-.487.479-1.154.225-1.744-1.015-2.362 3.094-7.599 3.904-9.906zM101.334 273.251c-.076 2.853-1.14 5.563-1.072 8.397.063 2.607.382 5.37 1.486 7.748.56 1.205 2.104.626 2.503-.327 1.047-2.493 1.116-5.555 1.833-8.18.659-2.418.876-5.145.82-7.638-.077-3.586-5.473-3.589-5.57 0zM142.113 360.988c-.862 1.762-2.137 3.134-2.683 5.062-.632 2.236-.676 4.503-1.507 6.707-1.329 3.526-3.767 7.42-1.173 10.935.932 1.262 2.799 1.484 3.69 0 1.607-2.682 2.46-6.306 3.438-9.294.467-1.43.697-2.843.909-4.326.367-2.559 1.208-4.007 2.178-6.248 1.403-3.242-3.237-6.137-4.852-2.836zM147.719 381.427c-.252 5.373-2.506 11.273.191 16.262.575 1.065 2.179 1.018 2.766 0 2.691-4.658 2.608-10.988 2.569-16.262-.027-3.573-5.36-3.542-5.526 0zM292.717 326.433c-5.991 2.443-12.306 2.244-18.629 3.05-6.893.879-13.982 2.225-20.725 3.896-6.847 1.695-13.692 3.397-20.547 5.058-3.762.912-7.975 1.048-10.856 3.916-1.346 1.34.669 3.309 2.068 2.068 3.408-3.019 12.355-2.896 16.728-3.571 6.861-1.059 13.574-2.747 20.42-3.887 6.69-1.115 13.338-2.398 20.064-3.273 4.769-.619 9.163-1.658 12.991-4.657 1.198-.938-.104-3.174-1.514-2.6zM352.296 315.162c-6.457 1.122-12.802 3.777-19.088 5.595-1.577.456-.918 2.873.679 2.463 25.055-6.448 52.166-4.927 76.291-15.743.974-.436.502-2.134-.55-2.034-12.74 1.215-24.891 4.64-37.406 7.123-6.596 1.31-13.357 1.454-19.926 2.596zM404.94 205.414c5.247 12.168 10.007 23.973 19.533 33.465 2.912 2.902 10.802 9.359 13.623 3.04 2.304-5.162-1.907-11.744-3.665-16.396-1.931-5.106-3.893-11.708-7.751-15.685-.447-.46-1.308.158-.912.704 3.93 5.412 4.616 13.375 7.03 19.547 1.087 2.778 3.923 7.588 1.996 10.303-1.241 1.749-1.864 1.113-3.696.214-1.003-.492-1.917-1.189-2.808-1.852-10.541-7.862-16.248-20.119-21.049-31.99-2.238-5.535-5.177-10.869-7.112-16.495-1.106-3.214-2.174-6.477-3.056-9.76-.321-1.198-2.742-7.656-2.256-8.423 1.22-1.926 3.925 2.236 4.627 2.929 2.519 2.492 5.091 4.245 7.157 7.222 3.437 4.953 5.467 10.856 8.996 15.618 1.015 1.371 3.343.062 2.325-1.36-2.683-3.747-4.315-8.549-6.796-12.527-2.249-3.607-4.274-6.551-7.453-9.41-3.293-2.96-6.892-9.606-12.04-6.964-.483.247-.875.895-.827 1.443.542 6.275 3.501 13.136 5.826 18.982 2.393 6.013 5.751 11.467 8.308 17.395zM369.673 109.668c1.891 2.814 5.498 9.096 9.443 9.365 6.865.468 4.447-15.659.178-17.943-.777-.416-2.081.302-1.671 1.285 1.322 3.163 1.808 5.963 1.761 9.401-.006.44.096 3.128-.428 3.349-.575.243-3.513-3.601-3.834-3.999-4.95-6.149-8.428-13.42-11.581-20.607-.877-1.999-3.777-.269-2.927 1.711 2.585 6.018 5.396 11.988 9.059 17.438z" fill="#000000" opacity="1" data-original="#000000" class=""></path></g></svg>