<svg xmlns="http://www.w3.org/2000/svg" version="1.1" xmlns:xlink="http://www.w3.org/1999/xlink" width="512" height="512" x="0" y="0" viewBox="0 0 512 512" style="enable-background:new 0 0 512 512" xml:space="preserve" class=""><g><path d="M314.182 418.909v-23.273h-93.091v23.273c0 12.8-10.473 23.273-23.273 23.273h-23.273c-6.982 0-11.636 4.655-11.636 11.636 0 6.982 4.655 11.636 11.636 11.636h186.182c6.982 0 11.636-4.655 11.636-11.636 0-6.982-4.655-11.636-11.636-11.636h-23.273c-12.799 0-23.272-10.473-23.272-23.273z" style="" fill="#d5e3ef" data-original="#d5e3ef"></path><path d="M221.091 395.636v11.636h58.182c6.982 0 11.636 4.655 11.636 11.636 0 6.982 4.655 11.636 11.636 11.636h5.818c3.491 0 5.818-2.327 5.818-5.818V395.635h-93.09zM360.727 465.455H174.545c-6.982 0-11.636-4.655-11.636-11.636h209.455c0 6.981-4.655 11.636-11.637 11.636z" style="" fill="#b0c4d9" data-original="#b0c4d9"></path><path d="M488.727 395.636H69.818c-12.8 0-23.273-10.473-23.273-23.273V69.818c0-12.8 10.473-23.273 23.273-23.273h418.909c12.8 0 23.273 10.473 23.273 23.273v302.545c0 12.801-10.473 23.273-23.273 23.273z" style="" fill="#d5e3ef" data-original="#d5e3ef"></path><path d="M512 325.818H46.545v-256c0-12.8 10.473-23.273 23.273-23.273h418.909c12.8 0 23.273 10.473 23.273 23.273v256z" style="" fill="#595a66" data-original="#595a66"></path><circle cx="267.636" cy="360.727" r="11.636" style="" fill="#595a66" data-original="#595a66"></circle><path d="M69.818 69.818h418.909v232.727H69.818z" style="" fill="#70b7e5" data-original="#70b7e5" class=""></path><path d="M139.636 465.455H23.273C10.473 465.455 0 454.982 0 442.182V209.455c0-12.8 10.473-23.273 23.273-23.273h116.364c12.8 0 23.273 10.473 23.273 23.273v232.727c-.001 12.8-10.474 23.273-23.274 23.273z" style="" fill="#595a66" data-original="#595a66"></path><path d="M139.636 465.455H23.273C10.473 465.455 0 454.982 0 442.182V209.455c0-12.8 10.473-23.273 23.273-23.273h116.364c12.8 0 23.273 10.473 23.273 23.273v232.727c-.001 12.8-10.474 23.273-23.274 23.273z" style="" fill="#595a66" data-original="#595a66"></path><path d="M151.273 189.673v252.509c0 6.982-4.655 11.636-11.636 11.636H3.491c3.491 6.982 11.636 11.636 19.782 11.636h116.364c12.8 0 23.273-10.473 23.273-23.273V209.455c-.001-8.146-4.655-16.291-11.637-19.782z" style="" fill="#494a52" data-original="#494a52"></path><path d="M23.273 232.727h116.364v186.182H23.273z" style="" fill="#70b7e5" data-original="#70b7e5" class=""></path><circle cx="81.455" cy="442.182" r="11.636" style="" fill="#35363e" data-original="#35363e"></circle><path d="M98.909 221.091H64c-3.491 0-5.818-2.327-5.818-5.818s2.327-5.818 5.818-5.818h34.909c3.491 0 5.818 2.327 5.818 5.818s-2.327 5.818-5.818 5.818z" style="" fill="#35363e" data-original="#35363e"></path><path d="M139.636 418.909H81.455l58.181-58.182zM58.182 418.909l81.454-81.454v-23.273L34.909 418.909z" style="" fill="#90cef1" data-original="#90cef1"></path><path d="M23.273 232.727h116.364v11.636H23.273z" style="" fill="#4c9cd6" data-original="#4c9cd6"></path><path d="M11.636 414.255c0 10.473-4.655 20.945-11.636 27.927V209.455c6.982 6.982 11.636 17.455 11.636 27.927v176.873z" style="" fill="#6f707e" data-original="#6f707e"></path><path d="M465.455 290.909h-93.091l104.727-104.727v93.091c0 6.982-4.655 11.636-11.636 11.636zM337.455 290.909l139.636-139.636v-34.909L302.545 290.909z" style="" fill="#90cef1" data-original="#90cef1"></path><path d="M109.382 58.182c-10.473 0-20.945-4.655-27.927-11.636h232.727c-6.982 6.982-17.455 11.636-27.927 11.636H109.382z" style="" fill="#6f707e" data-original="#6f707e"></path><path d="M162.909 302.545h23.273v23.273h-23.273z" style="" fill="#35363e" data-original="#35363e"></path><path d="M162.909 325.818h23.273v69.818h-23.273z" style="" fill="#b0c4d9" data-original="#b0c4d9"></path><path d="M186.182 302.545h-23.273v-93.091c12.8 0 23.273 10.473 23.273 23.273v69.818z" style="" fill="#4c9cd6" data-original="#4c9cd6"></path></g></svg>