<svg xmlns="http://www.w3.org/2000/svg" version="1.1" xmlns:xlink="http://www.w3.org/1999/xlink" width="512" height="512" x="0" y="0" viewBox="0 0 512 512" style="enable-background:new 0 0 512 512" xml:space="preserve" class=""><g><path fill="#2f8474" d="m279.264 55.486 4.832-31.648 158.24 24.16-4.832 31.648zM423.873 185.574l43.316 58.878L488 225.01l-39.023-62.588z" opacity="1" data-original="#2f8474"></path><path fill="#349381" d="m393.998 72.972 4.832-31.648 7.911 1.208-4.832 31.648zM448.977 162.422l-69.716 64.292 8.333-33.177 15.527-15.244a117.286 117.286 0 0 0 34.172-98.572L279.117 55.635 251.58 342.762l94.906 14.452L488 225.01z" opacity="1" data-original="#349381"></path><path fill="#54aa9a" d="m414.446 100.538-16.294 54.171-34.034 11.029-29.244-20.61.473-56.567z" opacity="1" data-original="#54aa9a"></path><path fill="#41a08e" d="m335.212 104.723 74.579 11.292 4.655-15.477-79.099-11.977z" opacity="1" data-original="#41a08e"></path><path fill="#fc8860" d="m376 122.211-27.466-28.709a180 180 0 0 0-74.411-46.749l-23.796-7.68-108.17 4.777-23.031 9.795a179.999 179.999 0 0 0-69.97 53.17l-24.809 31.033 50.44 53.812 23.089-21.046 9.417 211.79 207.795-9.24-9.418-211.79 24.865 18.914z" opacity="1" data-original="#fc8860" class=""></path><g fill="#f2c34e"><path d="m106.075 358.47 207.792-9.153 1.056 23.976-207.792 9.152zM305.848 165.37v.001zM376 122.211l-23.741-24.816-44.676 65.434 22.952 17.459zM24.347 137.848l50.441 53.812L96.1 172.233l-50.308-61.21z" fill="#f2c34e" opacity="1" data-original="#f2c34e" class=""></path></g><path fill="#fca98c" d="m147.601 28.265 50.44 53.812L243.506 24z" opacity="1" data-original="#fca98c"></path><path fill="#f2c34e" d="m147.601 28.265 24.602 26.246.575-.304a53.364 53.364 0 0 1 47.926-2.144l.618.275L243.506 24zM194.007 82.339l7.992-.352 3.168 71.928-7.992.352z" opacity="1" data-original="#f2c34e" class=""></path><path fill="#e37a56" d="M256.374 52.435 243.506 24l-45.464 58.077 14.673 8.867a16 16 0 0 0 18.816-1.656l20.806-18.219a16 16 0 0 0 4.037-18.634z" opacity="1" data-original="#e37a56"></path><path fill="#f2c34e" d="m167.619 119.534 15.984-.704.352 7.992-15.984.704zM168.674 143.511l15.984-.704.352 7.992-15.984.704z" opacity="1" data-original="#f2c34e" class=""></path><path fill="#dfdfdf" d="M332.624 410.691c-.24.313-24.49 31.62-72.74 61.44-26.648 16.47-51.04 12.29-61.36-.352-7.959-9.75-6.104-22.59 4.962-34.348 8.486-9.016 30.808-24.906 84.965-30.025l-.752-7.965c-17.194 1.625-37.725 4.963-55.954 11.682a195.832 195.832 0 0 1-38.069 25.536c-12.013 15.908-8.896 30.933-1.349 40.179 6.955 8.52 18.885 14.05 33.358 14.049 11.59-.001 24.812-3.55 38.405-11.95a339.619 339.619 0 0 0 56.154-43.207c12.34-11.853 18.482-19.848 18.737-20.182z" opacity="1" data-original="#dfdfdf"></path><path fill="#e2ac40" d="M258.384 354.459c-6.59-17.531-30.868-26.12-62.77-24.987l-131.115 49.29c-24.748 20.166-37.355 42.62-30.765 60.152 10.884 28.95 69.996 33.512 132.031 10.19 62.036-23.321 103.502-65.695 92.619-94.645z" opacity="1" data-original="#e2ac40"></path><path fill="#f2c34e" d="M173.016 294.027a32 32 0 0 0-38.243-12.75L78.52 302.422a32 32 0 0 0-20.372 34.788l13.64 89.256c22.992.83 51.132-3.989 79.9-14.804 28.769-10.815 53.114-25.728 69.866-41.499z" opacity="1" data-original="#f2c34e" class=""></path><path fill="#e37a56" d="m95.232 167.613 23.087-21.057 5.391 5.912-23.087 21.056zM278.273 145.554l4.84-6.368 24.868 18.901-4.84 6.368z" opacity="1" data-original="#e37a56"></path><path fill="#349381" d="m314.868 60.954 4.832-31.648 7.911 1.208-4.832 31.648zM354.434 66.963l4.832-31.648 7.911 1.208-4.832 31.648z" opacity="1" data-original="#349381"></path><path fill="#e37a56" d="M147.601 28.265 137.308 57.73a16 16 0 0 0 5.675 18.202l22.341 16.3a16 16 0 0 0 18.889-.02l13.829-10.135z" opacity="1" data-original="#e37a56"></path><path fill="#cc993e" d="m221.555 370.164-12.167-19.085c-16.547 14.51-39.44 28.08-66.144 38.119-26.704 10.04-52.867 14.911-74.874 14.895l3.419 22.374c22.992.83 51.132-3.989 79.9-14.804 28.769-10.815 53.114-25.728 69.866-41.499z" opacity="1" data-original="#cc993e"></path><path fill="#2f8474" d="m343.978 351.431 30.281-120.38 7.761 1.953-30.28 120.38z" opacity="1" data-original="#2f8474"></path><path fill="#fc8860" d="M487.604 361.932c-2.735-9.682-19.107-12.823-24.286-20.794-5.367-8.261-2.033-24.987-9.404-31.043-7.445-6.117-22.245 1.235-31.086-2.25-8.753-3.45-15.54-19.338-25.025-19.834-9.152-.478-16.73 14.552-25.985 17.166-9.255 2.614-23.576-6.23-31.125-1.036-7.824 5.385-5.297 22.476-10.952 29.995-5.711 7.595-22.17 9.072-25.316 18.18-3.113 9.018 8.479 21.528 8.226 31.376-.244 9.503-12.553 20.745-9.818 30.428 2.734 9.682 19.106 12.824 24.285 20.794 5.368 8.261 2.033 24.987 9.404 31.044 7.445 6.116 22.246-1.236 31.086 2.25 8.753 3.45 15.54 19.337 25.025 19.833 9.152.478 16.73-14.552 25.985-17.166 9.255-2.614 23.576 6.231 31.126 1.036 7.824-5.385 5.297-22.475 10.951-29.995 5.711-7.595 22.17-9.072 25.316-18.18 3.114-9.017-8.479-21.528-8.226-31.376.244-9.503 12.554-20.745 9.819-30.428z" opacity="1" data-original="#fc8860" class=""></path><path fill="#f2c34e" d="m427.189 354.057-47.192-19.923-29.796 41.668 17.395 61.591 76.988-21.745z" opacity="1" data-original="#f2c34e" class=""></path><path fill="#cc993e" d="m377.583 384.472 30.784-8.704 13.056 46.176-30.784 8.704z" opacity="1" data-original="#cc993e"></path><path fill="#1d3f39" d="m167.619 119.534 15.984-.704.352 7.992-15.984.704zM168.674 143.511l15.984-.704.352 7.992-15.984.704zM367.595 441.394a4.006 4.006 0 0 0 1.089-.152l76.988-21.744a4 4 0 0 0 2.763-4.937l-17.397-61.591a4 4 0 0 0-2.294-2.598l-47.191-19.923a3.996 3.996 0 0 0-4.81 1.359l-29.797 41.668a4 4 0 0 0-.595 3.414l17.396 61.59a4.003 4.003 0 0 0 3.848 2.914zm25.86-15.462-10.872-38.494 23.097-6.523 10.872 38.494zm-12.065-86.868 42.471 17.93 15.787 55.892-15.397 4.349-11.96-42.344a3.999 3.999 0 0 0-4.937-2.762l-30.794 8.698a4 4 0 0 0-2.763 4.937l11.96 42.343-15.399 4.349-15.786-55.891z" opacity="1" data-original="#1d3f39"></path><path fill="#1d3f39" d="M481.784 392.462c.082-3.217 2.343-7.403 4.529-11.451 3.335-6.176 7.115-13.176 5.14-20.166s-8.857-10.978-14.93-14.496c-3.98-2.307-8.096-4.691-9.85-7.391-1.9-2.922-2.512-7.931-3.103-12.775-.89-7.285-1.81-14.818-7.117-19.18-5.441-4.47-13.12-3.57-19.894-2.778-4.551.534-9.257 1.084-12.264-.101-2.518-.993-5.22-3.775-7.885-6.76l74.32-69.43a4 4 0 0 0 .665-5.04l-39.023-62.588a4 4 0 0 0-6.106-.824l-59.859 55.2 4.792-19.08 14.725-14.455A121.951 121.951 0 0 0 441.328 79.8l4.736-31.112a4 4 0 0 0-3.351-4.557L284.536 20.045a4 4 0 0 0-4.557 3.353l-3.058 20.086c-.525-.176-1.044-.367-1.57-.538l-22.11-7.136-6.09-13.459-.008.004c-.028-.062-.048-.126-.08-.186a4.032 4.032 0 0 0-3.734-2.165l-95.905 4.265a4.001 4.001 0 0 0-3.528 2.487c-.025.063-.04.129-.062.193l-.009-.004-4.86 13.916-21.41 9.105a184.615 184.615 0 0 0-71.523 54.35l-24.808 31.035a3.998 3.998 0 0 0 .206 5.232l50.44 53.813a3.999 3.999 0 0 0 5.612.22l16.777-15.293 4.938 111.054-22.083 8.302a36.166 36.166 0 0 0-22.919 39.135l6.008 39.318c-26.108 21.875-37.118 44.822-30.213 63.19 5.842 15.538 23.696 25.226 50.27 27.277q5.276.407 10.84.406c23.172 0 49.746-5.258 76.073-15.156a259.88 259.88 0 0 0 22.352-9.61c-6.893 13.4-3.694 25.64 2.802 33.599 6.955 8.52 18.885 14.05 33.357 14.049 11.591-.001 24.813-3.55 38.406-11.95a339.619 339.619 0 0 0 56.154-43.207c12.34-11.853 18.482-19.848 18.737-20.182l-6.357-4.857c-.24.313-24.49 31.62-72.74 61.44-26.648 16.47-51.04 12.29-61.36-.352-7.959-9.75-6.104-22.59 4.962-34.348a50.76 50.76 0 0 1 4.624-4.3q6.675-4.036 12.756-8.368c13.432-7.124 34.595-14.239 67.585-17.357l-.752-7.965c-14.382 1.36-31.097 3.924-46.849 8.656.474-.47.966-.935 1.428-1.407 8.973-9.17 15.252-18.338 18.709-27.115l46.372-2.062a17.327 17.327 0 0 1 1.293 6.077c-.082 3.218-2.342 7.404-4.529 11.452-3.335 6.176-7.114 13.175-5.14 20.165a16.037 16.037 0 0 0 3.739 6.474l5.892-5.41a8.034 8.034 0 0 1-1.932-3.238c-1.093-3.868 1.74-9.115 4.48-14.19 2.634-4.876 5.357-9.917 5.488-15.049.136-5.334-2.354-10.777-4.762-16.042-2.399-5.243-4.878-10.664-3.681-14.13 1.187-3.44 6.33-5.824 11.304-8.13 5.052-2.342 10.278-4.764 13.427-8.952 3.084-4.101 4.085-9.894 5.053-15.496.982-5.684 1.997-11.562 4.969-13.607 2.703-1.862 8.158-.65 13.435.523 5.584 1.239 11.359 2.522 16.511 1.066 5.15-1.455 9.402-5.568 13.51-9.546 3.884-3.758 7.914-7.66 11.178-7.474 3.603.188 7.544 4.666 11.354 8.997 3.755 4.268 7.639 8.681 12.413 10.563 4.875 1.922 10.594 1.252 16.127.605 5.444-.638 11.073-1.296 13.887 1.015 2.833 2.327 3.556 8.244 4.254 13.966.702 5.747 1.428 11.69 4.335 16.165 2.797 4.304 7.754 7.176 12.549 9.954 4.989 2.891 10.15 5.88 11.24 9.749 1.094 3.868-1.74 9.115-4.48 14.19-2.632 4.875-5.355 9.917-5.487 15.047-.137 5.335 2.354 10.78 4.763 16.044 2.398 5.243 4.878 10.663 3.68 14.13-1.187 3.44-6.33 5.823-11.303 8.129-5.053 2.342-10.279 4.764-13.428 8.952-3.084 4.102-4.085 9.894-5.053 15.496-.982 5.684-1.998 11.562-4.97 13.608-2.704 1.861-8.159.649-13.433-.523-5.585-1.24-11.36-2.522-16.51-1.068-5.153 1.456-9.404 5.57-13.514 9.548-3.882 3.759-7.899 7.669-11.175 7.473-3.604-.188-7.544-4.666-11.355-8.997-3.755-4.268-7.638-8.68-12.413-10.563-4.874-1.922-10.594-1.252-16.128-.605-5.443.638-11.073 1.296-13.885-1.014-2.834-2.328-3.557-8.245-4.255-13.968a173.825 173.825 0 0 0-.568-4.343l-7.914 1.172c.201 1.36.371 2.751.54 4.14.89 7.286 1.81 14.819 7.118 19.18 5.44 4.47 13.12 3.572 19.895 2.779 4.55-.534 9.258-1.083 12.264.102 2.977 1.174 6.212 4.85 9.34 8.405 4.905 5.574 9.977 11.337 16.943 11.702q.332.017.66.017c6.442 0 11.55-4.945 16.497-9.732 3.397-3.288 6.912-6.69 10.123-7.596 3.215-.906 7.984.152 12.603 1.178 6.945 1.542 14.13 3.138 19.703-.697 5.747-3.955 7.053-11.52 8.317-18.836.807-4.666 1.64-9.492 3.565-12.05 1.941-2.583 6.24-4.575 10.397-6.502 6.188-2.869 13.203-6.12 15.502-12.776 2.242-6.494-.915-13.395-3.969-20.069-2.029-4.437-4.129-9.026-4.039-12.51zM448.14 168.637l34.725 55.697-15.118 14.124-38.53-52.37zM433.94 75.165l-31.636-4.818 3.613-23.726 31.636 4.817zm-110.724-16.86 3.614-23.727 31.635 4.817-3.613 23.727zm43.158-17.706 31.635 4.818-3.613 23.726-31.636-4.817zm-79.089-12.042 31.636 4.817L315.31 57.1l-10.466-1.593a184.104 184.104 0 0 0-20.25-9.26zM141.085 59.049l8.115-23.23 42.836 45.7-10.187 7.466a11.959 11.959 0 0 1-14.167.015L145.34 72.7a11.93 11.93 0 0 1-4.256-13.65zm56.683 16.888-18.982-20.251a49.545 49.545 0 0 1 36.092-1.605zm44.817-44.27 10.144 22.417a11.932 11.932 0 0 1-3.027 13.976l-20.806 18.218a11.961 11.961 0 0 1-14.113 1.243l-10.81-6.532zm-7.589-3.285-14.94 19.085a57.535 57.535 0 0 0-47.014 2.09l-16.574-17.682zM75.01 186.047 29.635 137.64l16.2-20.265 44.762 54.462zm4.92 120.12 56.25-21.147a28.129 28.129 0 0 1 33.465 11.158l34.499 54.114c-16.458 13.766-38.43 26.185-62.306 35.162-23.878 8.976-48.589 14.106-70.04 14.591l-9.693-63.439a28.129 28.129 0 0 1 17.825-30.439zm136.45 63.32c-16.845 15.106-40.172 28.686-66.097 38.432-25.928 9.747-52.435 14.89-75.047 14.63l-2.218-14.521c22.297-.625 46.952-5.807 71.634-15.086 24.685-9.28 46.645-21.623 63.831-35.842zm20.182 31.608c-17.093 17.467-42.736 33.188-72.203 44.265-29.467 11.079-59.119 16.141-83.482 14.263-23.3-1.799-38.712-9.653-43.397-22.117-5.247-13.954 3.75-32.73 24.152-51.026l6.203 40.591a4 4 0 0 0 3.81 3.394q2.594.093 5.253.093c23.208 0 50.033-5.313 76.2-15.15 28.166-10.59 53.452-25.623 71.2-42.331a4.002 4.002 0 0 0 .63-5.063l-22.074-34.627c27.404.319 46.54 8.525 51.787 22.48 4.685 12.463-1.735 28.526-18.08 45.228zm64.084-50.085c-2.083 6.033.494 12.418 3.319 18.646l-40.566 1.803a33.32 33.32 0 0 0-1.27-18.408c-6.905-18.366-30.33-28.376-64.357-27.636l-21.381-33.538a36.167 36.167 0 0 0-43.025-14.345l-26.292 9.884-5.118-115.108 21.703-19.785-5.388-5.912-21.753 19.83-45.576-55.453 1.34-1.676a176.586 176.586 0 0 1 68.41-51.986l14.706-6.254-1.865 5.339a19.886 19.886 0 0 0 7.094 22.753l22.34 16.3a19.932 19.932 0 0 0 23.611-.026l7.8-5.716 2.867 64.462 7.992-.356-2.867-64.462 8.277 5.002a19.93 19.93 0 0 0 23.519-2.071l20.807-18.218a19.886 19.886 0 0 0 5.047-23.292l-2.323-5.133 15.19 4.903a176.574 176.574 0 0 1 72.758 45.71l1.483 1.55-40.474 59.279-23.425-17.82-4.844 6.368 23.373 17.78 7.918 178.046c-3.994 2.287-7.525 5.182-9.03 9.54zm70.07-228.536-40.898 52.242-16.788-12.77 39.75-58.22zm8.434 2.203a4 4 0 0 0-.258-5.23l-4.547-4.753 21.288 3.223 1.197-7.91-31.537-4.775-9.052-9.462 53.046 8.033-14.36 47.747-30.139 9.766-9.228-6.504zm-40.724 176.17c-5.747 3.954-7.054 11.52-8.318 18.835-.805 4.667-1.64 9.492-3.563 12.05-1.73 2.3-5.33 4.132-9.033 5.867l-7.466-167.871 18.068 13.744a4 4 0 0 0 5.572-.718l16.936-21.634 11.192 7.888a4.001 4.001 0 0 0 3.538.535l34.035-11.029a4 4 0 0 0 2.596-2.653l16.293-54.171a4 4 0 0 0-3.231-5.107L346.999 86.28a184.138 184.138 0 0 0-24.353-19.97l111.017 16.905a113.94 113.94 0 0 1-33.344 92.223l-15.528 15.244a4.01 4.01 0 0 0-1.077 1.88L356.769 299.85c-6.515-1.427-13.134-2.587-18.344.998zm59.587-16.83c-6.748-.352-12.043 4.764-17.158 9.714-3.398 3.289-6.912 6.69-10.123 7.597a15.534 15.534 0 0 1-6.106.086l18.225-72.569 40.449-37.3 38.56 52.412-50.806 47.464c-3.777-3.913-7.89-7.135-13.041-7.404z" opacity="1" data-original="#1d3f39"></path></g></svg>