<svg width="25" height="25" viewBox="0 0 25 25" fill="none" xmlns="http://www.w3.org/2000/svg">
<path d="M10.8887 6.64062H14.1113C14.72 6.64062 15.3037 6.88241 15.7341 7.31279C16.1645 7.74317 16.4062 8.3269 16.4062 8.93555V23.8281H8.59375V8.93555C8.59375 8.3269 8.83554 7.74317 9.26592 7.31279C9.6963 6.88241 10.28 6.64062 10.8887 6.64062Z" fill="#F9ADB1"/>
<path d="M10.9375 5.07812H14.0625V6.64062H10.9375V5.07812Z" fill="#EBEBEB"/>
<path d="M11.3281 1.5625H13.6719V5.07812H11.3281V1.5625Z" fill="#CDCDCD"/>
<path d="M9.86328 1.5625H11.3281V2.73438H9.375V2.05078C9.375 1.92128 9.42644 1.79708 9.51801 1.70551C9.60958 1.61394 9.73378 1.5625 9.86328 1.5625Z" fill="#EBEBEB"/>
<path d="M8.59375 12.1094H13.2812V18.3594H8.59375V12.1094Z" fill="#FFB8D1"/>
<path d="M16.4062 20.7031H23.4375V22.2656H16.4062V20.7031Z" fill="#4799CF"/>
<path d="M16.4062 16.7969H20.7031C21.2211 16.7969 21.7179 17.0027 22.0842 17.3689C22.4505 17.7352 22.6562 18.232 22.6562 18.75C22.6562 19.268 22.4505 19.7648 22.0842 20.1311C21.7179 20.4973 21.2211 20.7031 20.7031 20.7031H16.4062V16.7969Z" fill="#FBB540"/>
<path d="M19.3695 18.75H17.9687C17.8651 18.75 17.7658 18.7089 17.6925 18.6356C17.6193 18.5623 17.5781 18.463 17.5781 18.3594C17.5781 18.2558 17.6193 18.1564 17.6925 18.0832C17.7658 18.0099 17.8651 17.9688 17.9687 17.9688H19.3695C19.4934 17.9691 19.6161 17.9449 19.7305 17.8974C19.845 17.85 19.9489 17.7804 20.0363 17.6925C20.1095 17.6193 20.2089 17.5781 20.3125 17.5781C20.4161 17.5781 20.5155 17.6193 20.5887 17.6925C20.662 17.7658 20.7031 17.8652 20.7031 17.9688C20.7031 18.0724 20.662 18.1717 20.5887 18.245C20.429 18.4056 20.239 18.5329 20.0297 18.6196C19.8204 18.7063 19.596 18.7506 19.3695 18.75Z" fill="#DA922A"/>
<path d="M22.6562 22.2656L22.2656 23.8281H16.4062V22.2656H22.6562Z" fill="#428DC5"/>
<path d="M19.1406 15.2344C19.7878 15.2344 20.3125 14.7097 20.3125 14.0625C20.3125 13.4153 19.7878 12.8906 19.1406 12.8906C18.4934 12.8906 17.9688 13.4153 17.9688 14.0625C17.9688 14.7097 18.4934 15.2344 19.1406 15.2344Z" fill="#C0F5F9"/>
<path d="M23.0469 12.5C23.4783 12.5 23.8281 12.1502 23.8281 11.7188C23.8281 11.2873 23.4783 10.9375 23.0469 10.9375C22.6154 10.9375 22.2656 11.2873 22.2656 11.7188C22.2656 12.1502 22.6154 12.5 23.0469 12.5Z" fill="#C0F5F9"/>
<path d="M19.1406 9.76562C19.7878 9.76562 20.3125 9.24096 20.3125 8.59375C20.3125 7.94654 19.7878 7.42188 19.1406 7.42188C18.4934 7.42188 17.9688 7.94654 17.9688 8.59375C17.9688 9.24096 18.4934 9.76562 19.1406 9.76562Z" fill="#C0F5F9"/>
<path d="M19.5312 8.59375C19.747 8.59375 19.9219 8.41886 19.9219 8.20312C19.9219 7.98739 19.747 7.8125 19.5312 7.8125C19.3155 7.8125 19.1406 7.98739 19.1406 8.20312C19.1406 8.41886 19.3155 8.59375 19.5312 8.59375Z" fill="#E0F8F9"/>
<path d="M19.5312 14.0625C19.747 14.0625 19.9219 13.8876 19.9219 13.6719C19.9219 13.4561 19.747 13.2812 19.5312 13.2812C19.3155 13.2812 19.1406 13.4561 19.1406 13.6719C19.1406 13.8876 19.3155 14.0625 19.5312 14.0625Z" fill="#E0F8F9"/>
<path d="M23.3231 11.8806C23.4756 11.8806 23.5993 11.7569 23.5993 11.6043C23.5993 11.4518 23.4756 11.3281 23.3231 11.3281C23.1705 11.3281 23.0469 11.4518 23.0469 11.6043C23.0469 11.7569 23.1705 11.8806 23.3231 11.8806Z" fill="#E0F8F9"/>
<path d="M7.51953 13.2812C7.28643 13.2812 7.06288 13.1887 6.89805 13.0238C6.73322 12.859 6.64062 12.6354 6.64062 12.4023V11.7188H4.29688V12.4023C4.29688 12.6354 4.20428 12.859 4.03945 13.0238C3.87462 13.1887 3.65107 13.2812 3.41797 13.2812C3.02947 13.2812 2.65688 13.4356 2.38217 13.7103C2.10746 13.985 1.95313 14.3576 1.95312 14.7461V22.3633C1.95312 22.7518 2.10746 23.1244 2.38217 23.3991C2.65688 23.6738 3.02947 23.8281 3.41797 23.8281H7.51953C7.90803 23.8281 8.28062 23.6738 8.55533 23.3991C8.83004 23.1244 8.98438 22.7518 8.98438 22.3633V14.7461C8.98438 14.3576 8.83004 13.985 8.55533 13.7103C8.28062 13.4356 7.90803 13.2812 7.51953 13.2812Z" fill="#FD9226"/>
<path d="M3.90625 10.1562H7.03125V11.7188H3.90625V10.1562Z" fill="#EBEBEB"/>
<path d="M1.95312 15.625H5.85938V21.0938H1.95312V15.625Z" fill="#EBEBEB"/>
<path d="M14.8438 19.1406C14.7401 19.1406 14.6408 19.0995 14.5675 19.0262C14.4943 18.953 14.4531 18.8536 14.4531 18.75V18.3594C14.4531 18.2558 14.4943 18.1564 14.5675 18.0832C14.6408 18.0099 14.7401 17.9688 14.8438 17.9688C14.9474 17.9688 15.0467 18.0099 15.12 18.0832C15.1932 18.1564 15.2344 18.2558 15.2344 18.3594V18.75C15.2344 18.8536 15.1932 18.953 15.12 19.0262C15.0467 19.0995 14.9474 19.1406 14.8438 19.1406Z" fill="#FFBABC"/>
<path d="M14.8438 21.875C14.7401 21.875 14.6408 21.8338 14.5675 21.7606C14.4943 21.6873 14.4531 21.588 14.4531 21.4844V20.3125C14.4531 20.2089 14.4943 20.1095 14.5675 20.0363C14.6408 19.963 14.7401 19.9219 14.8438 19.9219C14.9474 19.9219 15.0467 19.963 15.12 20.0363C15.1932 20.1095 15.2344 20.2089 15.2344 20.3125V21.4844C15.2344 21.588 15.1932 21.6873 15.12 21.7606C15.0467 21.8338 14.9474 21.875 14.8438 21.875Z" fill="#FFBABC"/>
<path d="M4.29688 11.7188H6.64062V12.5H4.29688V11.7188Z" fill="#E08122"/>
<path d="M11.3281 4.29688H13.6719V5.07812H11.3281V4.29688Z" fill="#B9B9B9"/>
<path d="M22.6562 22.2656L22.4609 23.0469H16.4062V22.2656H22.6562Z" fill="#3C81B4"/>
<path d="M17.9687 18.75H19.3695C19.596 18.7506 19.8204 18.7063 20.0297 18.6196C20.239 18.5329 20.429 18.4056 20.5887 18.245C20.662 18.1717 20.7031 18.0724 20.7031 17.9688C20.7031 17.8652 20.662 17.7658 20.5887 17.6925C20.5155 17.6193 20.4161 17.5781 20.3125 17.5781C20.2089 17.5781 20.1095 17.6193 20.0363 17.6925C19.9489 17.7804 19.845 17.85 19.7305 17.8974C19.6161 17.9449 19.4934 17.9691 19.3695 17.9688H17.9687C17.8651 17.9688 17.7658 18.0099 17.6925 18.0832C17.6193 18.1564 17.5781 18.2558 17.5781 18.3594C17.5781 18.463 17.6193 18.5623 17.6925 18.6356C17.7658 18.7089 17.8651 18.75 17.9687 18.75Z" fill="black"/>
<path d="M19.1406 12.5C18.8316 12.5 18.5295 12.5916 18.2725 12.7633C18.0156 12.935 17.8153 13.179 17.6971 13.4646C17.5788 13.7501 17.5479 14.0642 17.6081 14.3673C17.6684 14.6704 17.8173 14.9488 18.0358 15.1674C18.2543 15.3859 18.5327 15.5347 18.8358 15.595C19.1389 15.6553 19.4531 15.6243 19.7386 15.5061C20.0241 15.3878 20.2681 15.1875 20.4398 14.9306C20.6115 14.6736 20.7031 14.3715 20.7031 14.0625C20.7027 13.6482 20.5379 13.2511 20.245 12.9582C19.952 12.6652 19.5549 12.5005 19.1406 12.5ZM19.1406 14.8438C18.9861 14.8438 18.8351 14.7979 18.7066 14.7121C18.5781 14.6262 18.478 14.5042 18.4188 14.3615C18.3597 14.2187 18.3442 14.0616 18.3744 13.9101C18.4045 13.7585 18.4789 13.6193 18.5882 13.5101C18.6975 13.4008 18.8367 13.3264 18.9882 13.2963C19.1398 13.2661 19.2968 13.2816 19.4396 13.3407C19.5824 13.3999 19.7044 13.5 19.7902 13.6285C19.8761 13.7569 19.9219 13.908 19.9219 14.0625C19.9216 14.2696 19.8392 14.4682 19.6928 14.6147C19.5463 14.7611 19.3478 14.8435 19.1406 14.8438Z" fill="black"/>
<path d="M23.0469 10.5469C22.8151 10.5469 22.5885 10.6156 22.3958 10.7444C22.2031 10.8731 22.0529 11.0562 21.9642 11.2703C21.8755 11.4844 21.8523 11.7201 21.8975 11.9474C21.9427 12.1747 22.0543 12.3835 22.2182 12.5474C22.3821 12.7113 22.5909 12.8229 22.8183 12.8681C23.0456 12.9133 23.2812 12.8901 23.4953 12.8014C23.7095 12.7127 23.8925 12.5625 24.0213 12.3698C24.15 12.1771 24.2188 11.9505 24.2188 11.7188C24.2184 11.4081 24.0948 11.1102 23.8751 10.8905C23.6554 10.6708 23.3576 10.5472 23.0469 10.5469ZM23.0469 12.1094C22.9696 12.1094 22.8941 12.0865 22.8299 12.0435C22.7656 12.0006 22.7156 11.9396 22.686 11.8682C22.6564 11.7969 22.6487 11.7183 22.6638 11.6425C22.6788 11.5668 22.716 11.4972 22.7707 11.4425C22.8253 11.3879 22.8949 11.3507 22.9707 11.3356C23.0464 11.3206 23.125 11.3283 23.1964 11.3579C23.2677 11.3874 23.3287 11.4375 23.3717 11.5017C23.4146 11.566 23.4375 11.6415 23.4375 11.7188C23.4374 11.8223 23.3962 11.9216 23.323 11.9948C23.2497 12.0681 23.1504 12.1093 23.0469 12.1094Z" fill="black"/>
<path d="M19.1406 7.03125C18.8316 7.03125 18.5295 7.12289 18.2725 7.29458C18.0156 7.46627 17.8153 7.7103 17.6971 7.99581C17.5788 8.28132 17.5479 8.59548 17.6081 8.89858C17.6684 9.20167 17.8173 9.48008 18.0358 9.6986C18.2543 9.91712 18.5327 10.0659 18.8358 10.1262C19.1389 10.1865 19.4531 10.1556 19.7386 10.0373C20.0241 9.91905 20.2681 9.71878 20.4398 9.46183C20.6115 9.20488 20.7031 8.90278 20.7031 8.59375C20.7027 8.17949 20.5379 7.78233 20.245 7.48941C19.952 7.19648 19.5549 7.03172 19.1406 7.03125ZM19.1406 9.375C18.9861 9.375 18.8351 9.32918 18.7066 9.24334C18.5781 9.15749 18.478 9.03548 18.4188 8.89272C18.3597 8.74997 18.3442 8.59288 18.3744 8.44134C18.4045 8.28979 18.4789 8.15058 18.5882 8.04132C18.6975 7.93206 18.8367 7.85766 18.9882 7.82751C19.1398 7.79737 19.2968 7.81284 19.4396 7.87197C19.5824 7.9311 19.7044 8.03123 19.7902 8.15971C19.8761 8.28819 19.9219 8.43923 19.9219 8.59375C19.9216 8.80088 19.8392 8.99945 19.6928 9.14591C19.5463 9.29237 19.3478 9.37475 19.1406 9.375Z" fill="black"/>
<path d="M3.41797 24.2188H7.51953C7.78074 24.2189 8.03899 24.1635 8.2772 24.0563C8.31328 24.1066 8.36081 24.1475 8.41586 24.1758C8.4709 24.204 8.53188 24.2188 8.59375 24.2188H22.2656C22.3527 24.2187 22.4374 24.1896 22.506 24.136C22.5747 24.0824 22.6235 24.0074 22.6446 23.9229L22.9612 22.6562H23.4375C23.5411 22.6562 23.6405 22.6151 23.7137 22.5418C23.787 22.4686 23.8281 22.3692 23.8281 22.2656V20.7031C23.8281 20.5995 23.787 20.5002 23.7137 20.4269C23.6405 20.3537 23.5411 20.3125 23.4375 20.3125H22.4482C22.7504 19.9756 22.9485 19.5584 23.0186 19.1113C23.0887 18.6642 23.0278 18.2063 22.8432 17.7931C22.6586 17.3799 22.3582 17.029 21.9785 16.7829C21.5987 16.5368 21.1557 16.406 20.7031 16.4062H16.7969V8.93555C16.796 8.28282 16.5577 7.6527 16.1264 7.16271C15.6952 6.67272 15.1005 6.35632 14.4531 6.27251V5.07812C14.4531 4.97452 14.412 4.87517 14.3387 4.80191C14.2655 4.72866 14.1661 4.6875 14.0625 4.6875V1.5625C14.0625 1.4589 14.0213 1.35954 13.9481 1.28629C13.8748 1.21303 13.7755 1.17188 13.6719 1.17188H9.86328C9.63026 1.17215 9.40687 1.26483 9.2421 1.4296C9.07733 1.59437 8.98465 1.81776 8.98438 2.05078V2.73438C8.98438 2.83798 9.02553 2.93733 9.09879 3.01059C9.17204 3.08384 9.2714 3.125 9.375 3.125H10.9375V4.6875C10.8339 4.6875 10.7345 4.72866 10.6613 4.80191C10.588 4.87517 10.5469 4.97452 10.5469 5.07812V6.27251C9.89955 6.35632 9.3048 6.67272 8.87356 7.16271C8.44232 7.6527 8.20403 8.28282 8.20312 8.93555V13.0217C7.98564 12.935 7.75365 12.8905 7.51953 12.8906C7.39007 12.8905 7.26596 12.839 7.17442 12.7475C7.08288 12.6559 7.03139 12.5318 7.03125 12.4023V12.1094C7.13485 12.1094 7.23421 12.0682 7.30746 11.995C7.38072 11.9217 7.42188 11.8224 7.42188 11.7188V10.1562C7.42188 10.0526 7.38072 9.95329 7.30746 9.88004C7.23421 9.80678 7.13485 9.76562 7.03125 9.76562H3.90625C3.80265 9.76562 3.70329 9.80678 3.63004 9.88004C3.55678 9.95329 3.51562 10.0526 3.51562 10.1562V11.7188C3.51562 11.8224 3.55678 11.9217 3.63004 11.995C3.70329 12.0682 3.80265 12.1094 3.90625 12.1094V12.4023C3.90611 12.5318 3.85462 12.6559 3.76308 12.7475C3.67154 12.839 3.54743 12.8905 3.41797 12.8906C2.92604 12.8912 2.45442 13.0868 2.10657 13.4347C1.75872 13.7825 1.56306 14.2542 1.5625 14.7461V22.3633C1.56306 22.8552 1.75872 23.3268 2.10657 23.6747C2.45442 24.0225 2.92604 24.2182 3.41797 24.2188ZM8.98438 13.6093V12.5H12.8906V17.9688H9.375V14.7461C9.37529 14.3342 9.23779 13.934 8.98438 13.6093ZM21.9606 23.4375H16.7969V22.6562H22.156L21.9606 23.4375ZM23.0469 21.875H16.7969V21.0938H23.0469V21.875ZM20.7031 17.1875C21.1175 17.1875 21.515 17.3521 21.808 17.6451C22.101 17.9382 22.2656 18.3356 22.2656 18.75C22.2656 19.1644 22.101 19.5618 21.808 19.8549C21.515 20.1479 21.1175 20.3125 20.7031 20.3125H16.7969V17.1875H20.7031ZM11.3281 5.46875H13.6719V6.25H11.3281V5.46875ZM9.76562 2.34375V2.05078C9.76562 2.02488 9.77591 2.00004 9.79423 1.98173C9.81254 1.96341 9.83738 1.95312 9.86328 1.95312H10.9375V2.34375H9.76562ZM11.7188 1.95312H13.2812V4.6875H11.7188V1.95312ZM10.8887 7.03125H14.1113C14.6162 7.03182 15.1002 7.23263 15.4572 7.58963C15.8142 7.94664 16.0151 8.43067 16.0156 8.93555V23.4375H9.03096C9.255 23.1241 9.37531 22.7485 9.375 22.3633V18.75H13.2812C13.3849 18.75 13.4842 18.7088 13.5575 18.6356C13.6307 18.5623 13.6719 18.463 13.6719 18.3594V12.1094C13.6719 12.0058 13.6307 11.9064 13.5575 11.8332C13.4842 11.7599 13.3849 11.7188 13.2812 11.7188H8.98438V8.93555C8.98494 8.43067 9.18576 7.94664 9.54276 7.58963C9.89976 7.23263 10.3838 7.03182 10.8887 7.03125ZM4.29688 10.5469H6.64062V11.3281H4.29688V10.5469ZM3.41797 13.6719C3.75455 13.6715 4.07725 13.5376 4.31525 13.2996C4.55325 13.0616 4.68713 12.7389 4.6875 12.4023V12.1094H6.25V12.4023C6.25037 12.7389 6.38425 13.0616 6.62225 13.2996C6.86025 13.5376 7.18295 13.6715 7.51953 13.6719C7.80433 13.6722 8.07738 13.7855 8.27876 13.9869C8.48015 14.1882 8.59343 14.4613 8.59375 14.7461V22.3633C8.59343 22.6481 8.48015 22.9211 8.27876 23.1225C8.07738 23.3239 7.80433 23.4372 7.51953 23.4375H3.41797C3.13317 23.4372 2.86012 23.3239 2.65874 23.1225C2.45735 22.9211 2.34407 22.6481 2.34375 22.3633V21.4844H5.85938C5.96298 21.4844 6.06233 21.4432 6.13559 21.37C6.20885 21.2967 6.25 21.1973 6.25 21.0938V15.625C6.25 15.5214 6.20885 15.422 6.13559 15.3488C6.06233 15.2755 5.96298 15.2344 5.85938 15.2344H2.34375V14.7461C2.34407 14.4613 2.45735 14.1882 2.65874 13.9869C2.86012 13.7855 3.13317 13.6722 3.41797 13.6719ZM2.34375 16.0156H5.46875V20.7031H2.34375V16.0156Z" fill="black"/>
<path d="M14.8438 19.1406C14.9474 19.1406 15.0467 19.0995 15.12 19.0262C15.1932 18.953 15.2344 18.8536 15.2344 18.75V18.3594C15.2344 18.2558 15.1932 18.1564 15.12 18.0832C15.0467 18.0099 14.9474 17.9688 14.8438 17.9688C14.7401 17.9688 14.6408 18.0099 14.5675 18.0832C14.4943 18.1564 14.4531 18.2558 14.4531 18.3594V18.75C14.4531 18.8536 14.4943 18.953 14.5675 19.0262C14.6408 19.0995 14.7401 19.1406 14.8438 19.1406Z" fill="black"/>
<path d="M14.8438 21.875C14.9474 21.875 15.0467 21.8338 15.12 21.7606C15.1932 21.6873 15.2344 21.588 15.2344 21.4844V20.3125C15.2344 20.2089 15.1932 20.1095 15.12 20.0363C15.0467 19.963 14.9474 19.9219 14.8438 19.9219C14.7401 19.9219 14.6408 19.963 14.5675 20.0363C14.4943 20.1095 14.4531 20.2089 14.4531 20.3125V21.4844C14.4531 21.588 14.4943 21.6873 14.5675 21.7606C14.6408 21.8338 14.7401 21.875 14.8438 21.875Z" fill="black"/>
</svg>
