<svg xmlns="http://www.w3.org/2000/svg" version="1.1" xmlns:xlink="http://www.w3.org/1999/xlink" width="512" height="512" x="0" y="0" viewBox="0 0 512 512" style="enable-background:new 0 0 512 512" xml:space="preserve" class=""><g><g fill-rule="evenodd" clip-rule="evenodd"><path fill="#e3a76f" d="M127.993 43.728H256v398.96H93.327V43.728z" opacity="1" data-original="#e3a76f" class=""></path><path fill="#c48958" d="M248 43.728a8 8 0 0 1 16 0v398.96a8 8 0 0 1-16 0z" opacity="1" data-original="#c48958"></path><path fill="#d8ecfe" d="M174.662 75.573c26.769 0 48.669 21.901 48.669 48.668v236.811c0 26.767-21.9 48.668-48.669 48.668-26.767 0-48.668-21.902-48.668-48.668V124.241c0-26.767 21.901-48.668 48.668-48.668z" opacity="1" data-original="#d8ecfe" class=""></path><path fill="#c4e2ff" d="M174.662 75.573c26.769 0 48.669 21.901 48.669 48.668v236.811c0 26.767-21.9 48.668-48.669 48.668-1.688 0-3.356-.088-5-.257 24.443-2.524 43.669-23.332 43.669-48.411V124.241c0-25.08-19.227-45.887-43.669-48.411a48.628 48.628 0 0 1 5-.257z" opacity="1" data-original="#c4e2ff"></path><path fill="#ecba78" d="M256 43.728v398.96h162.673V43.728h-82.68zm48.488 164.269v42.693c0 6.783-5.55 12.334-12.334 12.334s-12.334-5.551-12.334-12.334v-42.693c0-6.783 5.55-12.333 12.334-12.333s12.334 5.55 12.334 12.333z" opacity="1" data-original="#ecba78"></path><path fill="#e3a76f" d="M408.673 442.688h10.001V43.728h-10.001v84.767z" opacity="1" data-original="#e3a76f" class=""></path><path fill="#c48958" d="M292.154 195.664c6.784 0 12.334 5.55 12.334 12.333v42.693c0 6.783-5.55 12.334-12.334 12.334s-12.334-5.551-12.334-12.334v-42.693c0-6.783 5.55-12.333 12.334-12.333zM103.327 442.688h-10V43.728h10V125.504z" opacity="1" data-original="#c48958"></path><path fill="#e3a76f" d="M88.347 16.001h335.307c3.855 0 7 3.144 7 7v13.727c0 3.855-3.145 7-7 7H88.347c-3.855 0-7-3.145-7-7V23.001c0-3.855 3.144-7 7-7z" opacity="1" data-original="#e3a76f" class=""></path><path fill="#c48958" d="M426.287 16.517c2.557 1.044 4.367 3.559 4.367 6.484v13.727c0 3.855-3.145 7-7 7H88.347c-3.855 0-7-3.145-7-7v-.05a6.953 6.953 0 0 0 2.633.516h335.307c3.855 0 7-3.145 7-7z" opacity="1" data-original="#c48958"></path><path fill="#685e68" d="M93.279 376.943h23.161v101.486H93.279z" opacity="1" data-original="#685e68"></path><path fill="#d1d1d6" d="M75.021 469.171h59.678c7.7 0 14 6.3 14 14v12.831H61.021V483.17c0-7.7 6.3-13.999 14-13.999z" opacity="1" data-original="#d1d1d6"></path><path fill="#b1b1b5" d="M75.021 469.171h59.678c7.7 0 14 6.3 14 14v12.831h-1.746v-10.099c0-7.7-6.3-14-14-14H73.275c-4.366 0-8.281 2.026-10.853 5.183 2.274-4.675 7.076-7.915 12.599-7.915z" opacity="1" data-original="#b1b1b5"></path><path fill="#a79ba7" d="M78.435 342.552h52.849v45.126c0 5.5-4.5 10-10 10H88.435c-5.5 0-10-4.5-10-10z" opacity="1" data-original="#a79ba7"></path><path fill="#837683" d="M121.284 342.552h10v45.126c0 5.5-4.5 10-10 10h-10c5.5 0 10-4.5 10-10z" opacity="1" data-original="#837683"></path><path fill="#d1d1d6" d="M24 342.552h161.719c4.4 0 8 3.6 8 8v10.831c0 4.4-3.6 8-8 8H24c-4.4 0-8-3.6-8-8v-10.831c0-4.4 3.6-8 8-8z" opacity="1" data-original="#d1d1d6"></path><path fill="#b1b1b5" d="M188.825 343.183c2.869 1.219 4.894 4.069 4.894 7.369v10.831c0 4.4-3.6 8-8 8H24c-3.123 0-5.842-1.814-7.158-4.439a7.929 7.929 0 0 0 3.106.631h161.719c4.4 0 8-3.6 8-8v-10.831a7.932 7.932 0 0 0-.842-3.561z" opacity="1" data-original="#b1b1b5"></path><path fill="#d6b4a8" d="m432.201 432.1-153.946-6.943V312.649c0-17.113 14.003-31.115 31.116-31.115h91.715c17.114 0 31.115 14.005 31.115 31.115zm-139.477-24.146h125.01v-4.643c0-7.635-3.539-14.471-9.06-18.949a24.271 24.271 0 0 0-15.335-5.446H317.12c-13.436 0-24.395 10.959-24.395 24.395z" opacity="1" data-original="#d6b4a8"></path><path fill="#e3a76f" d="M266.81 449.501h39.403l-11.861 40.435c-.888 3.027-3.562 5.03-6.717 5.03H273.81c-3.855 0-7-3.145-7-7zm137.484 0h39.403v39.5c0 3.855-3.145 7-7 7h-13.792c-3.17 0-5.855-2.023-6.729-5.07z" opacity="1" data-original="#e3a76f" class=""></path><path fill="#a79ba7" d="M292.724 407.954h125.01v-4.643c0-7.635-3.539-14.471-9.06-18.949a24.271 24.271 0 0 0-15.335-5.446H317.12c-13.436 0-24.395 10.959-24.395 24.395z" opacity="1" data-original="#a79ba7"></path><path fill="#cca393" d="m414.56 431.304-114.73-5.174c4.424-4.45 10.544-7.212 17.289-7.212h76.219c5.801 0 11.14 2.043 15.335 5.446a24.575 24.575 0 0 1 5.887 6.94zM278.255 352.65v-40.001c0-17.113 14.003-31.115 31.116-31.115h91.715c17.114 0 31.115 14.005 31.115 31.115v40.001c0-17.11-14.001-31.115-31.115-31.115h-91.715c-17.114 0-31.116 14.002-31.116 31.115z" opacity="1" data-original="#cca393"></path><path fill="#d1d1d6" d="M292.724 407.954h125.01v-58.076c0-21.613 17.52-39.134 39.133-39.134S496 328.671 496 349.878s-16.232 37.81-36.721 39.057V439.5c0 5.508-4.492 10-10 10H261.177c-5.508 0-10-4.492-10-10v-50.568c-20.464-1.272-36.671-18.269-36.671-39.053 0-21.613 17.521-39.134 39.134-39.134 21.614 0 39.135 17.521 39.135 39.134 0 .676-.017 1.346-.052 2.014v56.061z" opacity="1" data-original="#d1d1d6"></path><path fill="#b1b1b5" d="M292.724 407.954h125.01v5.476h-125.01zm125.009-52.6v-5.476c0-21.613 17.52-39.134 39.133-39.134s39.133 17.927 39.133 39.134c0 .941-.033 1.873-.096 2.795-1.401-20.015-18.342-36.453-39.037-36.453-21.612 0-39.133 17.521-39.133 39.134zm-203.13-2.73a39.6 39.6 0 0 1-.096-2.745c0-21.613 17.521-39.134 39.134-39.134 21.614 0 39.135 17.521 39.135 39.134 0 .676-.017 1.346-.052 2.014v1.439c-1.053-20.673-18.147-37.112-39.083-37.112-20.695 0-37.635 16.065-39.038 36.404z" opacity="1" data-original="#b1b1b5"></path><path fill="#837683" d="M407.733 407.954h10v-4.643c0-7.635-3.539-14.471-9.06-18.949a24.271 24.271 0 0 0-15.335-5.446h-10c5.801 0 11.14 2.043 15.335 5.446 5.521 4.479 9.06 11.314 9.06 18.949z" opacity="1" data-original="#837683"></path><path fill="#c48958" d="M296.213 449.501h10l-11.861 40.435c-.888 3.027-3.562 5.03-6.717 5.03h-10c3.155 0 5.829-2.002 6.717-5.03zm137.484 0h10v39.5c0 3.855-3.145 7-7 7h-10c3.855 0 7-3.145 7-7z" opacity="1" data-original="#c48958"></path><path fill="#242222" d="M458.819 380.951c-4.236.259-7.531 3.751-7.531 7.983V441.5H259.201v-52.566c0-4.222-3.295-7.724-7.484-7.983-16.38-1.021-29.183-14.671-29.183-31.07 0-17.171 13.979-31.141 31.113-31.141 17.18 0 31.16 13.97 31.16 31.141 0 .541-.047 1.068-.047 1.6V407.949a7.998 7.998 0 0 0 8.002 8.002h125.015c4.378 0 8.002-3.582 8.002-8.002V349.88c0-17.171 13.933-31.141 31.112-31.141 16.851 0 31.113 14.262 31.113 31.141-.002 16.701-12.522 30.059-29.185 31.071zM435.709 488H423.66l-8.755-30.496h20.804zm-148.785-1.036h-12.097v-29.461h20.711zm-162.481-81.58v29.305h118.755v-38.846c-6.778-1.544-12.944-4.542-18.263-8.632-9.602 18.451-28.759 30.51-50.269 30.51-15.627 0-30.171-6.368-40.668-17.279-2.542 2.528-5.884 4.288-9.555 4.942zm-23.158 55.786v-55.489h7.155v55.489zm39.444 22V488H69.043v-4.829c0-3.309 2.683-6.001 5.978-6.001h59.683c3.342-.001 6.025 2.691 6.025 6zm-17.416-105.787v10.299c0 1.078-.941 2-2.024 2H88.435c-1.082 0-1.977-.922-1.977-2v-10.299zm-99.315-26.834h161.728v10.83H23.998zm115.318 26.834h46.41c8.849 0 16.003-7.183 16.003-16.004v-10.83c0-8.821-7.154-15.999-16.003-15.999h-51.729V124.243c0-22.428 18.263-40.668 40.668-40.668 22.452 0 40.667 18.239 40.667 40.668v198.23c-5.507 7.729-8.802 17.19-8.802 27.408 0 8.792 2.448 17.062 6.684 24.151-5.554 16.46-20.945 27.691-38.549 27.691-14.733 0-28.1-7.912-35.349-20.734zM101.332 51.729v282.822h16.662V124.243c0-31.249 25.464-56.671 56.671-56.671 31.254 0 56.671 25.422 56.671 56.671v184.128a47.108 47.108 0 0 1 16.662-5.281V51.729zM89.376 24H422.67v11.73H89.376zm321.339 250.726a39.431 39.431 0 0 0-9.602-1.191h-91.737c-19.298 0-35.349 14.055-38.549 32.463a46.475 46.475 0 0 0-6.825-2.099V51.729h146.714v222.997zm-1.318 125.227c-1.553-7.432-8.143-13.043-16.05-13.043h-76.204c-7.908 0-14.497 5.611-16.051 13.043zm.377-50.072c0-13.321 5.554-25.347 14.45-33.927v-3.304c0-7.776-3.86-14.667-9.79-18.856a14.158 14.158 0 0 1-.565-.405 22.997 22.997 0 0 0-12.756-3.855h-91.737c-12.709 0-23.111 10.369-23.111 23.116v3.252c8.943 8.581 14.544 20.64 14.544 33.979 0 .739-.047 1.469-.047 2.212v23.299a32.1 32.1 0 0 1 16.38-4.481h76.204c5.978 0 11.579 1.643 16.427 4.481v-25.511zm47.116-47.139a46.735 46.735 0 0 0-17.227 3.281c-1.6-9.089-6.26-17.119-12.944-22.918V51.729h3.954a7.998 7.998 0 0 0 8.002-8.002V16.003a7.998 7.998 0 0 0-8.002-8.002H81.375a7.999 7.999 0 0 0-8.002 8.002v27.724a7.998 7.998 0 0 0 8.002 8.002h3.954v282.822H23.998c-8.802 0-16.003 7.178-16.003 15.999v10.83c0 8.821 7.201 16.004 16.003 16.004h46.457v10.299c0 8.84 6.401 16.201 14.827 17.703v55.786H75.021c-12.097 0-21.981 9.87-21.981 22v12.831A7.994 7.994 0 0 0 61.042 504h87.689a7.994 7.994 0 0 0 8.002-7.997V483.17c0-12.129-9.884-22-22.028-22h-10.261v-10.478h118.849c.565 3.85 3.907 6.811 7.908 6.811h7.625v37.457a7.998 7.998 0 0 0 8.002 8.002h26.076c3.53 0 6.684-2.34 7.672-5.743l11.673-39.717h86.042l11.673 40.705a7.97 7.97 0 0 0 7.672 5.789h26.076a7.994 7.994 0 0 0 8.002-7.997v-38.498h7.578a7.999 7.999 0 0 0 8.002-8.002v-53.621c21.416-4.679 36.714-23.299 36.714-46-.003-25.988-21.136-47.136-47.118-47.136zm-169.071-94.745v42.696c0 2.349 2.024 4.331 4.377 4.331 2.307 0 4.331-1.982 4.331-4.331v-42.696c0-2.349-2.024-4.33-4.331-4.33-2.353 0-4.377 1.981-4.377 4.33zm4.377 63.03c11.203 0 20.287-9.122 20.287-20.334v-42.696c0-11.212-9.084-20.334-20.287-20.334-11.249 0-20.381 9.122-20.381 20.334v42.696c0 11.212 9.132 20.334 20.381 20.334z" opacity="1" data-original="#242222" class=""></path></g></g></svg>