<svg xmlns="http://www.w3.org/2000/svg" version="1.1" xmlns:xlink="http://www.w3.org/1999/xlink" width="512" height="512" x="0" y="0" viewBox="0 0 512 512" style="enable-background:new 0 0 512 512" xml:space="preserve" class=""><g><path fill="#c79a83" d="M280.28 302.34A31.283 31.283 0 0 1 275 280.6a31.6 31.6 0 0 0 .26-4 31.194 31.194 0 0 0-5.53-17.73L137.82 67.72a32.374 32.374 0 1 0-53.35 36.69l86.11 124.78 84.18 101.84c2.99-11.63 16.14-19.64 31.64-19.82z" opacity="1" data-original="#c79a83" class=""></path><path fill="#a07c6b" d="m200.58 229.19-86.11-124.78a32.286 32.286 0 0 1 8.3-44.97 32.8 32.8 0 0 1 3.382-2.027 32.347 32.347 0 0 0-41.682 47l86.11 124.78 84.18 101.84c1.911-7.433 7.975-13.382 16.147-16.759z" opacity="1" data-original="#a07c6b"></path><circle cx="269.11" cy="448.14" r="38.93" fill="#f2cd6d" opacity="1" data-original="#f2cd6d"></circle><path fill="#af826e" d="m315.77 412.28 54.14 29.32-22.99 15.81z" opacity="1" data-original="#af826e"></path><path fill="#c79a83" d="m369.91 441.6 24.36 13.19a21.89 21.89 0 0 1-8.69 12.09l-15.78 10.85a22.026 22.026 0 0 1-30.6-5.63 7.625 7.625 0 0 1-1.37-4.37 7.71 7.71 0 0 1 3.35-6.37l5.74-3.95z" opacity="1" data-original="#c79a83" class=""></path><path fill="#799091" d="M358.62 265.68v.01l-23.56 51.02-13.31.86-17.59-3.76 27.88-60.36a76.871 76.871 0 0 0 26.58 12.23z" opacity="1" data-original="#799091"></path><path fill="#4689d3" d="m297.32 312.35-18.82 87.74-.43-.09c-3.57-.76-20.95.1-29.34-14.07a122.328 122.328 0 0 0 6.03-54.9c2.99-11.63 16.14-19.64 31.64-19.82a46.913 46.913 0 0 1 10.49 1.05z" opacity="1" data-original="#4689d3"></path><path fill="#5fa8ed" d="m321.75 317.57-7.16 33.41-4.77 22.22-6.89 32.12-24.43-5.23 18.82-87.74 6.84 1.46z" opacity="1" data-original="#5fa8ed"></path><path fill="#c1d1e5" d="M452.89 450.32a4.052 4.052 0 0 1-2.27 6.26l-26.07 7.02a24.256 24.256 0 0 1-17.87-2.09l-12.41-6.72-24.36-13.19-54.14-29.32v-.01l-12.84-6.95 6.89-32.12 113.48 41.14a19.421 19.421 0 0 1 9.13 6.97z" opacity="1" data-original="#c1d1e5"></path><path fill="#d4e1f4" d="M473.75 390.89a4.062 4.062 0 0 1-1.05 6.73l-45 19.01a18.977 18.977 0 0 0-4.4-2.29L309.82 373.2l4.77-22.22 120.06 8.82a19.232 19.232 0 0 0 6.59-.67z" opacity="1" data-original="#d4e1f4"></path><path fill="#c1d1e5" d="M477.47 330.47a4.068 4.068 0 0 1-.24 6.7l-30.86 19.67a19.013 19.013 0 0 1-5.13 2.29 19.232 19.232 0 0 1-6.59.67l-120.06-8.82 7.16-33.41 13.31-.86 104.76-6.76a24.283 24.283 0 0 1 16.27 4.69z" opacity="1" data-original="#c1d1e5"></path><path fill="#a4bfc1" d="M476.34 142.04a104.623 104.623 0 0 0-1.58-38.28 82.283 82.283 0 0 0-6.36-17.66c-6.51-13.02-16.44-23.37-29.42-29.35-.01 0-.01-.01-.02-.01-12.99-5.97-27.33-6.78-41.47-3.25a82.369 82.369 0 0 0-17.55 6.64h-.01a105.043 105.043 0 0 0-30.18 23.65 125.514 125.514 0 0 0-19.21 28.71c-.42.84-.82 1.7-1.22 2.56a127.1 127.1 0 0 0-9.62 30.06 108.849 108.849 0 0 0-.7 37.15 85.126 85.126 0 0 0 7.71 24.52c6.51 13.02 16.44 23.37 29.42 29.35.01 0 .01.01.02.01 12.97 5.97 27.3 6.79 41.45 3.28v-.01a84.954 84.954 0 0 0 23.71-10.07h.01a109.466 109.466 0 0 0 27.88-24.72 127.076 127.076 0 0 0 16.6-26.78c.4-.86.78-1.72 1.15-2.58a125.146 125.146 0 0 0 9.39-33.22zM450.38 32.06c49.11 22.59 65.27 92.12 36.1 155.3-26.49 57.36-81.25 89.76-127.86 78.33v-.01a76.871 76.871 0 0 1-26.58-12.23c-39-27.94-49.89-90.55-23.4-147.91 29.17-63.18 92.63-96.07 141.74-73.48z" opacity="1" data-original="#a4bfc1"></path><path fill="#ea8e60" d="m95.75 382.98-48.93 48.84a121.413 121.413 0 0 1-34.98-72.01 88.324 88.324 0 0 1 83.91 23.17z" opacity="1" data-original="#ea8e60"></path><path fill="#d8825b" d="M95.75 382.98a87.942 87.942 0 0 1 23.21 83.75 121.8 121.8 0 0 1-72.14-34.91z" opacity="1" data-original="#d8825b"></path><path fill="#ce7b51" d="m133.31 345.49 86.48 86.33a122.233 122.233 0 0 1-100.83 34.91 87.942 87.942 0 0 0-23.21-83.75z" opacity="1" data-original="#ce7b51"></path><path fill="#df8a59" d="m133.31 345.49-37.56 37.49a88.324 88.324 0 0 0-83.91-23.17 121.774 121.774 0 0 1 34.98-100.65z" opacity="1" data-original="#df8a59"></path><path fill="#ba6847" d="M254.76 331.03a121.817 121.817 0 0 1-34.97 100.79l-86.48-86.33 37.72-37.65a88.335 88.335 0 0 0 83.72 23.21c0-.01 0-.01.01-.02z" opacity="1" data-original="#ba6847"></path><path fill="#cc764c" d="m171.03 307.84-37.72 37.65-86.49-86.33a122.212 122.212 0 0 1 100.95-34.91v.01a87.951 87.951 0 0 0 23.26 83.58z" opacity="1" data-original="#cc764c"></path><path fill="#bf6743" d="m219.79 259.16-48.76 48.68a87.951 87.951 0 0 1-23.26-83.58v-.01a122.158 122.158 0 0 1 72.02 34.91z" opacity="1" data-original="#bf6743"></path><path fill="#ad5a3d" d="M254.76 331.03c-.01.01-.01.01-.01.02a88.335 88.335 0 0 1-83.72-23.21l48.76-48.68a121.549 121.549 0 0 1 34.97 71.87z" opacity="1" data-original="#ad5a3d"></path><path fill="#c17a5b" d="M41.666 357.571a88.86 88.86 0 0 0-29.826 2.239 121.413 121.413 0 0 0 34.98 72.01l16.319-16.289A121.391 121.391 0 0 1 41.9 359.81c-.09-.745-.16-1.493-.234-2.239z" opacity="1" data-original="#c17a5b"></path><path fill="#aa6549" d="M147.85 224.41c.012-.05.15-.1.15-.15v-.01a122.37 122.37 0 0 0-101.065 34.91l16.307 16.334a123.425 123.425 0 0 1 13.779-16.334 121.993 121.993 0 0 1 70.829-34.75z" opacity="1" data-original="#aa6549"></path><path fill="#b26b4f" d="M63.139 415.531 46.82 431.82a121.8 121.8 0 0 0 72.14 34.91 88.14 88.14 0 0 0 1.426-6.9 122.661 122.661 0 0 1-57.247-44.3z" opacity="1" data-original="#b26b4f"></path><path fill="#b27252" d="M63.184 275.494 46.82 259.16a121.774 121.774 0 0 0-34.98 100.65 88.86 88.86 0 0 1 29.826-2.239 121.829 121.829 0 0 1 21.518-82.077z" opacity="1" data-original="#b27252"></path><g fill="#284268"><path d="M441.485 51.3c-40.63-18.694-93.388 8.777-117.61 61.234-13.717 29.706-15.976 61.944-6.195 88.448 7 18.963 19.431 33.005 35.958 40.608a64.646 64.646 0 0 0 27.2 5.866c34.6 0 71.344-25.81 90.409-67.1 13.717-29.706 15.975-61.945 6.194-88.448-6.996-18.959-19.429-33.001-35.956-40.608zm.267 13.718a56.2 56.2 0 0 1 19.954 21.244l-1.862 4.03L435.3 79zm-84.794 90.557 9.266-20.068 24.547 11.294-9.266 20.068zm19.517 22.189-9.266 20.067-24.548-11.294 9.266-20.067zm-5.221-53.151 9.267-20.068 24.547 11.294-9.268 20.072zm30.419 27.2 24.548 11.294-9.266 20.068-24.548-11.294zm5.031-10.9 9.266-20.067 24.548 11.294-9.267 20.068zM421 109.964l9.266-20.064 24.548 11.294-9.266 20.067zm-19.3-51.288a61.782 61.782 0 0 1 12.357-1.294 53.946 53.946 0 0 1 16.79 2.628L424.4 73.987l-24.553-11.295zm-6.885 14.911 24.548 11.294-9.263 20.068-24.549-11.294zM380.1 66.815l3.817 1.756-9.266 20.068-14.728-6.776A97.319 97.319 0 0 1 380.1 66.815zm-28.753 24.312 18.272 8.407-9.266 20.066-21.581-9.929a119.687 119.687 0 0 1 12.575-18.544zm-17.861 29.322 21.836 10.051-9.266 20.068-19.532-8.987a122.756 122.756 0 0 1 6.962-21.132zm-9.06 57.7a100.549 100.549 0 0 1-.03-24.344l16.63 7.651-9.266 20.068zm28.919 49.709A56.23 56.23 0 0 1 333.4 206.6l4.232-9.164 24.547 11.294zm40.033 6.383a56.741 56.741 0 0 1-29.132-1.366l8.834-19.131 24.547 11.294zm9.28-20.1-24.548-11.29 9.267-20.068 24.547 11.294zm18.228 8.387-7.327-3.371 9.266-20.068 16.609 7.641a102.4 102.4 0 0 1-18.548 15.802zm26.5-25.346-19.53-8.982 9.266-20.068 21.862 10.058a121.94 121.94 0 0 1-11.593 18.996zm16.382-30-21.621-9.948 9.267-20.068 18.344 8.441a119.9 119.9 0 0 1-5.985 21.577zm7.484-34.1-14.808-6.813 9.266-20.067 3.853 1.772a95.75 95.75 0 0 1 1.694 25.113z" fill="#284268" opacity="1" data-original="#284268"></path><path d="M452.888 26.608C400.856 2.67 333.706 36.949 303.2 103.024c-17.093 37.02-19.828 77.411-7.5 110.814 6.337 17.173 16.171 31.213 28.874 41.475l-23.839 51.631-2.588-.553a53.384 53.384 0 0 0-8.551-1.119l-4.373-6.338a25.207 25.207 0 0 1-4.264-17.563 37.191 37.191 0 0 0-6.288-25.912L142.754 64.315A38.472 38.472 0 0 0 89.366 54.5a38.3 38.3 0 0 0-9.838 53.32l77.144 111.78a128.009 128.009 0 1 0 67.353 216.461 125.41 125.41 0 0 0 2.69-2.775 44.929 44.929 0 1 0 64.428-24.279l9.692 2 10.808 5.854 26.923 39.014-.788.541a13.722 13.722 0 0 0-3.521 19.1 28.058 28.058 0 0 0 38.942 7.164l15.78-10.851a28.014 28.014 0 0 0 8.139-8.671l6.7 3.629a30.178 30.178 0 0 0 22.289 2.612l26.075-7.017a10.066 10.066 0 0 0 5.615-15.523L438 418.792l37.035-15.649c.042-.017.083-.036.124-.054a10.064 10.064 0 0 0 2.723-16.563l-26.424-25.811 29.005-18.486a10.065 10.065 0 0 0 .58-16.579l-21.377-15.829a30.216 30.216 0 0 0-20.223-5.86l-94.7 6.115 17.333-37.541a86.717 86.717 0 0 0 15.512 1.385c44.008 0 90.436-32.26 114.348-84.046 17.094-37.02 19.828-77.411 7.5-110.814-9.036-24.46-25.126-42.595-46.548-52.452zm-162.77 290.728-16.338 76.17c-5.472-.6-13.323-2.1-18.379-8.476a128.179 128.179 0 0 0 6.207-39.541 130.14 130.14 0 0 0-.753-13.922c3.118-9.405 15.616-15.267 29.263-14.231zm-27.03 86.29a44.649 44.649 0 0 0-19.67 7.688 126.512 126.512 0 0 0 7.3-14.009 35.142 35.142 0 0 0 12.37 6.321zM152.45 231.038a116.715 116.715 0 0 1 21.615 5.742 6 6 0 0 0 7.153-2.36v-.007a6 6 0 0 0-2.927-8.862c-1.286-.479-2.58-.929-3.878-1.365L89.405 101a26.3 26.3 0 0 1 6.76-36.617 26.458 26.458 0 0 1 36.712 6.748l131.91 191.145a25.2 25.2 0 0 1 4.263 17.564 37.189 37.189 0 0 0 6.289 25.91l.486.7a40.833 40.833 0 0 0-17.808 8.769 127.209 127.209 0 0 0-33.992-60.307q-3.73-3.725-7.689-7.073a6 6 0 1 0-7.734 9.169c.868.737 1.718 1.5 2.569 2.272L171.18 299.2a81.267 81.267 0 0 1-18.73-68.162zm95.588 95.316a81.645 81.645 0 0 1-68.364-18.674l40-39.932a114.947 114.947 0 0 1 28.364 58.606zM133.3 229.458q3.606 0 7.208.226a93.145 93.145 0 0 0 22.157 78.016L133.3 337.011l-77.88-77.74a116.086 116.086 0 0 1 77.88-29.813zM17 345.489a115.117 115.117 0 0 1 29.931-77.741l77.88 77.741-29.2 29.147A95.066 95.066 0 0 0 17.22 352.56c-.141-2.345-.22-4.702-.22-7.071zm1.549 19A81.62 81.62 0 0 1 87.1 383.131l-40.171 40.1a114.943 114.943 0 0 1-28.38-58.739zm95.741 95.475a115.728 115.728 0 0 1-58.866-28.26l40.172-40.1a81.234 81.234 0 0 1 18.694 68.363zm11.931 1.331a94.682 94.682 0 0 0-22.121-78.18l29.2-29.148 77.88 77.74a116.214 116.214 0 0 1-84.959 29.593zm93.457-38.069L141.8 345.489l29.375-29.322a93.4 93.4 0 0 0 61.976 23.533 95.248 95.248 0 0 0 16.23-1.408c.145 2.387.227 4.786.227 7.2a115.119 115.119 0 0 1-29.93 77.737zm82.361 24.912a32.929 32.929 0 1 1-32.93-32.93 32.966 32.966 0 0 1 32.93 32.933zm-3.716-49.938-12.695-2.713 16.3-76.012 12.695 2.714zm36.605 31.273 23.512 12.736-9.986 6.866zm47.252 32.469-15.78 10.85a16.048 16.048 0 0 1-22.266-4.091 1.719 1.719 0 0 1 .444-2.4l25.709-17.678 16.254 8.8a15.983 15.983 0 0 1-4.361 4.515zm64.213-10.428-23.406 6.3a18.2 18.2 0 0 1-13.455-1.577l-99.791-54.051 4.5-21 107.011 38.8a13.1 13.1 0 0 1 6.27 4.786zm21.2-58.252-39.452 16.668-111.356-40.588 2.573-12 116.663 8.5a25.206 25.206 0 0 0 3.283-.224zm-27.321-77.326a18.24 18.24 0 0 1 12.247 3.534l19.115 14.154-28.491 18.16a13.259 13.259 0 0 1-8.058 2.031L321.9 345.5l4.769-22.235zm-109.162-4.98-8.916.576-9.436-2.017 21.812-47.241a84.423 84.423 0 0 0 7.664 4.016 82.7 82.7 0 0 0 8.027 3.19zm149.922-126.112c-27.739 60.074-87.751 91.721-133.782 70.544-18.466-8.5-32.4-24.3-40.3-45.7-11.231-30.438-8.63-67.481 7.139-101.631 21.894-47.417 63.895-77.123 103.257-77.123a72.556 72.556 0 0 1 30.524 6.579c18.466 8.5 32.4 24.3 40.3 45.7 11.23 30.438 8.63 67.481-7.138 101.631z" fill="#284268" opacity="1" data-original="#284268"></path><path d="m108.222 85.293-1.143-1.716a6 6 0 1 0-9.988 6.649l1.142 1.716a6 6 0 1 0 9.989-6.649zM118.358 100.521a6 6 0 0 0-9.988 6.65l42.766 64.244a6 6 0 1 0 9.988-6.649z" fill="#284268" opacity="1" data-original="#284268"></path></g></g></svg>